<svg xmlns="http://www.w3.org/2000/svg" viewBox="0 0 120 160.5"><defs><style>.cls-1{fill:#fff;opacity:0;}.cls-2{fill:none;stroke:#4d4d4d;stroke-miterlimit:10;}.cls-3{fill:#7095ff;}.cls-4{fill:#1e1e1e;}</style></defs><title>アセット 95</title><g id="レイヤー_2" data-name="レイヤー 2"><g id="レイヤー_1-2" data-name="レイヤー 1"><rect class="cls-1" width="120" height="160"/><path class="cls-2" d="M54.75,131.93s58.58,39.92-45.65,24.55"/><path class="cls-3" d="M110.78,72.2c-1.88,26.88-25.65,61.12-52.54,59.24s-46.69-39.17-44.81-66a48.79,48.79,0,0,1,97.35,6.81Z"/><polygon class="cls-3" points="56.85 124.72 46.03 136.31 65.03 138.3 56.85 124.72"/><path class="cls-4" d="M29.66,78H25.59c-.15,5.67-1.45,9-4.52,11.85a1.41,1.41,0,0,1-1,.4,1.72,1.72,0,0,1-1.69-1.63,1.44,1.44,0,0,1,.48-1.09C21.67,85,22.63,83,22.75,78H19.68a1.2,1.2,0,0,1-1.24-1.29,1.32,1.32,0,0,1,1.24-1.42h3.11V72.86a16.29,16.29,0,0,1-2.51.84A1.7,1.7,0,0,1,18.8,72a1,1,0,0,1,.76-1,18.67,18.67,0,0,0,7.2-3.44,1,1,0,0,1,.61-.21,1.53,1.53,0,0,1,1.39,1.48c0,.72-.79,1.32-3.14,2.68v3.68h4V68.79c0-.85.75-1.24,1.51-1.24a1.32,1.32,0,0,1,1.47,1.24v6.45h3a2.62,2.62,0,0,1,2.68,2.92c0,4.86.67,6.82,1.87,8.48.27.36.55.57.79.57.54,0,1.08-1,1.66-3.11a20,20,0,0,0-2.84-1.5,1.07,1.07,0,0,1-.69-1,1.35,1.35,0,0,1,.75-1.18,1.47,1.47,0,0,1-.69-1.2,1.1,1.1,0,0,1,.63-1,13.48,13.48,0,0,0,2.08-1.41,2.18,2.18,0,0,1-.75.12c-2.53,0-5.61-3.83-5.61-9.53,0-.24,0-.45-.33-.45H20.82a1.2,1.2,0,0,1-1.23-1.3,1.32,1.32,0,0,1,1.23-1.42H35.93a2.2,2.2,0,0,1,2.47,2.48c0,6,2.48,7.26,2.84,7.26s.9-.75,1.42-2.47c-.79-.42-1.87-1-2.84-1.39a1,1,0,0,1-.51-.93,1.52,1.52,0,0,1,.66-1.3,1.73,1.73,0,0,1-.78-1.36.91.91,0,0,1,.6-.87,11.22,11.22,0,0,0,2.62-1.57A.88.88,0,0,1,43,63.9a1.6,1.6,0,0,1,1.32,1.57,1.12,1.12,0,0,1-.42.9A9.17,9.17,0,0,1,41.12,68c2.2.94,3,1.27,3,2.08a1.43,1.43,0,0,1-.15.58,1.75,1.75,0,0,1,1.42,1.59,7.84,7.84,0,0,1-2.35,4,1.43,1.43,0,0,1,1.23,1.36,1.24,1.24,0,0,1-.42.91,14.8,14.8,0,0,1-2.89,2,24.94,24.94,0,0,1,3.16,1.44,1.11,1.11,0,0,1,.64,1,1.06,1.06,0,0,1-.09.42,1.64,1.64,0,0,1,.93,1.42c0,.42-1.78,5.79-4.58,5.79-1.75,0-5.58-2.78-5.58-11.88,0-.49-.15-.64-.48-.64H32.64V89.29a1.32,1.32,0,0,1-1.47,1.24c-.76,0-1.51-.4-1.51-1.24Z"/><path class="cls-4" d="M53.12,78.68a27.61,27.61,0,0,0,1,8.59,1.79,1.79,0,0,1,.13.69,1.73,1.73,0,0,1-3.44.25,39.61,39.61,0,0,1-.82-8.9,55.83,55.83,0,0,1,1.66-13.9,1.62,1.62,0,0,1,1.6-1.15,1.44,1.44,0,0,1,1.57,1.27,2.06,2.06,0,0,1-.06.39,39.92,39.92,0,0,0-1.63,11.25ZM73.87,69A1.44,1.44,0,0,1,74,71.8c-1.33.15-2.9.27-4.65.33,0,.21.18,6.37.18,9.35a39.11,39.11,0,0,1,5,2.87,1.6,1.6,0,0,1,.75,1.38,1.63,1.63,0,0,1-1.48,1.69,1.67,1.67,0,0,1-1-.36,36.09,36.09,0,0,0-3.32-2.2c-.36,4.37-3.13,5.49-6.69,5.49-4,0-6.91-2.36-6.91-5.76,0-3.17,2.72-5.07,6.61-5.07a13.3,13.3,0,0,1,4,.75c-.06-2.38-.09-5.27-.15-8h-2c-2.2,0-4.53,0-6.79-.12a1.5,1.5,0,0,1-1.44-1.56,1.29,1.29,0,0,1,1.35-1.36h.15c2.41.18,4.92.24,7.33.24h1.33c0-1.69-.09-3.23-.12-4.46V64.9c0-.82.78-1.24,1.56-1.24a1.34,1.34,0,0,1,1.48,1.27c0,1.17.06,2.68.09,4.4,1.72-.09,3.26-.21,4.46-.33ZM66.51,83.32a10.89,10.89,0,0,0-4-1c-2.26,0-3.44.9-3.44,2.32,0,1.63,1.36,2.74,3.74,2.74s3.71-.78,3.71-3.65Zm6.42-15a1,1,0,0,1-.9-.57,21.26,21.26,0,0,0-1.57-2.35,1.1,1.1,0,0,1-.24-.6,1,1,0,0,1,1.87-.58c.36.42,2,2.42,2,3.08A1.12,1.12,0,0,1,72.93,68.33Zm3-1.32a1,1,0,0,1-.85-.49,16.24,16.24,0,0,0-1.6-2.2,1,1,0,0,1-.27-.63,1,1,0,0,1,1-.9c.45,0,.93.24,2.56,2.71a1,1,0,0,1,.18.54A1,1,0,0,1,75.89,67Z"/><path class="cls-4" d="M105,69.57c-2.35-.06-4.73-.09-7.14-.12.06,2.2.06,4.4.06,6.06a8.47,8.47,0,0,1,.54,3.14c0,5.82-2.08,10.34-10.28,11.64l-.3,0a1.72,1.72,0,0,1-1.72-1.72,1.35,1.35,0,0,1,1.23-1.36c5-.87,7-2.68,7.87-5.16a8,8,0,0,1-4.7,1.39c-4.94,0-7.48-2.44-7.48-6s2.84-6.18,7.63-6.18a8.08,8.08,0,0,1,4.25,1c0-.9-.06-1.93-.09-2.86h-1.9c-4.4,0-8.83.09-13.36.24H79.5c-.81,0-1.2-.75-1.2-1.48s.36-1.41,1.11-1.41c5.19-.06,10.29-.09,15.26-.09,0-.61-.06-1.21-.12-1.78v-.12c0-.79.75-1.21,1.57-1.21a1.43,1.43,0,0,1,1.57,1.27c0,.57,0,1.2.06,1.81,2.44,0,4.88,0,7.26,0a1.28,1.28,0,0,1,1.24,1.41A1.31,1.31,0,0,1,105,69.57ZM90.69,74.06c-3,0-4.64,1.39-4.64,3.5,0,1.63,1.47,3.14,4.43,3.14,2.74,0,4.85-1.06,4.85-3.65C95.33,75.42,93.62,74.06,90.69,74.06Z"/></g></g></svg>