<svg xmlns="http://www.w3.org/2000/svg" viewBox="0 0 601 848.25"><defs><style>.cls-1{fill:#fff;stroke:#e6e6e6;}.cls-1,.cls-3,.cls-4{stroke-miterlimit:10;}.cls-2{opacity:0.6;}.cls-3,.cls-4{fill:none;stroke:#ccc;}.cls-3{stroke-width:0.5px;}</style></defs><title>アセット 34</title><g id="レイヤー_2" data-name="レイヤー 2"><g id="レイヤー_1-2" data-name="レイヤー 1"><rect class="cls-1" x="0.5" y="0.5" width="600" height="847.25" rx="5"/><g class="cls-2"><path class="cls-3" d="M317.65,808c0,9.47-7.64,22.46-17.11,22.46s-17.19-13-17.19-22.46a17.15,17.15,0,1,1,34.3,0Z"/><path class="cls-3" d="M300.54,830.52s-.46,11.9-8.05,11.56"/></g><line class="cls-4" x1="555.17" y1="105.5" x2="45.83" y2="105.5"/><line class="cls-4" x1="555.17" y1="145.5" x2="45.83" y2="145.5"/><line class="cls-4" x1="555.17" y1="185.5" x2="45.83" y2="185.5"/><line class="cls-4" x1="555.17" y1="225.5" x2="45.83" y2="225.5"/><line class="cls-4" x1="555.17" y1="265.5" x2="45.83" y2="265.5"/><line class="cls-4" x1="555.17" y1="305.5" x2="45.83" y2="305.5"/><line class="cls-4" x1="555.17" y1="345.5" x2="45.83" y2="345.5"/><line class="cls-4" x1="555.17" y1="385.5" x2="45.83" y2="385.5"/><line class="cls-4" x1="555.17" y1="425.5" x2="45.83" y2="425.5"/><line class="cls-4" x1="555.17" y1="465.5" x2="45.83" y2="465.5"/><line class="cls-4" x1="555.17" y1="505.5" x2="45.83" y2="505.5"/><line class="cls-4" x1="555.17" y1="545.5" x2="45.83" y2="545.5"/><line class="cls-4" x1="555.17" y1="585.5" x2="45.83" y2="585.5"/><line class="cls-4" x1="555.17" y1="625.5" x2="45.83" y2="625.5"/><line class="cls-4" x1="555.17" y1="665.5" x2="45.83" y2="665.5"/><line class="cls-4" x1="555.17" y1="705.5" x2="45.83" y2="705.5"/><line class="cls-4" x1="555.17" y1="745.5" x2="45.83" y2="745.5"/><line class="cls-4" x1="555.17" y1="785.5" x2="45.83" y2="785.5"/></g></g></svg>