<svg xmlns="http://www.w3.org/2000/svg" viewBox="0 0 600 847.25"><defs><style>.cls-1{fill:#fffae6;}.cls-2{opacity:0.8;}.cls-3,.cls-7{fill:none;}.cls-3{stroke:#e6e6e6;}.cls-3,.cls-6,.cls-7{stroke-miterlimit:10;}.cls-4,.cls-6{fill:#ccc;}.cls-5{opacity:0.4;}.cls-6,.cls-7{stroke:#ccc;stroke-width:0.5px;}</style></defs><title>アセット 68</title><g id="レイヤー_2" data-name="レイヤー 2"><g id="レイヤー_1-2" data-name="レイヤー 1"><rect class="cls-1" width="600" height="847.25" rx="5"/><g class="cls-2"><line class="cls-3" x1="585" y1="130" x2="10" y2="130"/><line class="cls-3" x1="585" y1="117" x2="10" y2="117"/><line class="cls-3" x1="585" y1="104" x2="10" y2="104"/><line class="cls-3" x1="585" y1="91" x2="10" y2="91"/><line class="cls-3" x1="585" y1="78" x2="10" y2="78"/><line class="cls-3" x1="585" y1="65" x2="10" y2="65"/><line class="cls-3" x1="585" y1="52" x2="10" y2="52"/><line class="cls-3" x1="585" y1="39" x2="10" y2="39"/><line class="cls-3" x1="585" y1="26" x2="10" y2="26"/><line class="cls-3" x1="585" y1="143" x2="10" y2="143"/><line class="cls-3" x1="585" y1="156" x2="10" y2="156"/><line class="cls-3" x1="585" y1="169" x2="10" y2="169"/><line class="cls-3" x1="585" y1="182" x2="10" y2="182"/><line class="cls-3" x1="585" y1="195" x2="10" y2="195"/><line class="cls-3" x1="585" y1="208" x2="10" y2="208"/><line class="cls-3" x1="585" y1="221" x2="10" y2="221"/><line class="cls-3" x1="585" y1="234" x2="10" y2="234"/><line class="cls-3" x1="585" y1="247" x2="10" y2="247"/><line class="cls-3" x1="585" y1="260" x2="10" y2="260"/><line class="cls-3" x1="585" y1="273" x2="10" y2="273"/><line class="cls-3" x1="585" y1="286" x2="10" y2="286"/><line class="cls-3" x1="585" y1="299" x2="10" y2="299"/><line class="cls-3" x1="585" y1="312" x2="10" y2="312"/><line class="cls-3" x1="585" y1="325" x2="10" y2="325"/><line class="cls-3" x1="585" y1="338" x2="10" y2="338"/><line class="cls-3" x1="585" y1="351" x2="10" y2="351"/><line class="cls-3" x1="585" y1="364" x2="10" y2="364"/><line class="cls-3" x1="585" y1="377" x2="10" y2="377"/><line class="cls-3" x1="585" y1="390" x2="10" y2="390"/><line class="cls-3" x1="585" y1="403" x2="10" y2="403"/><line class="cls-3" x1="585" y1="416" x2="10" y2="416"/><line class="cls-3" x1="585" y1="429" x2="10" y2="429"/><line class="cls-3" x1="585" y1="442" x2="10" y2="442"/><line class="cls-3" x1="585" y1="455" x2="10" y2="455"/><line class="cls-3" x1="585" y1="468" x2="10" y2="468"/><line class="cls-3" x1="585" y1="481" x2="10" y2="481"/><line class="cls-3" x1="585" y1="494" x2="10" y2="494"/><line class="cls-3" x1="585" y1="507" x2="10" y2="507"/><line class="cls-3" x1="585" y1="520" x2="10" y2="520"/><line class="cls-3" x1="585" y1="533" x2="10" y2="533"/><line class="cls-3" x1="585" y1="546" x2="10" y2="546"/><line class="cls-3" x1="585" y1="559" x2="10" y2="559"/><line class="cls-3" x1="585" y1="572" x2="10" y2="572"/><line class="cls-3" x1="585" y1="585" x2="10" y2="585"/><line class="cls-3" x1="585" y1="598" x2="10" y2="598"/><line class="cls-3" x1="585" y1="611" x2="10" y2="611"/><line class="cls-3" x1="585" y1="624" x2="10" y2="624"/><line class="cls-3" x1="585" y1="637" x2="10" y2="637"/><line class="cls-3" x1="585" y1="650" x2="10" y2="650"/><line class="cls-3" x1="585" y1="663" x2="10" y2="663"/><line class="cls-3" x1="585" y1="676" x2="10" y2="676"/><line class="cls-3" x1="585" y1="689" x2="10" y2="689"/><line class="cls-3" x1="585" y1="702" x2="10" y2="702"/><line class="cls-3" x1="585" y1="715" x2="10" y2="715"/><line class="cls-3" x1="585" y1="728" x2="10" y2="728"/><line class="cls-3" x1="585" y1="741" x2="10" y2="741"/><line class="cls-3" x1="585" y1="754" x2="10" y2="754"/><line class="cls-3" x1="585" y1="767" x2="10" y2="767"/><line class="cls-3" x1="585" y1="780" x2="10" y2="780"/><line class="cls-3" x1="585" y1="793" x2="10" y2="793"/><line class="cls-3" x1="585" y1="806" x2="10" y2="806"/><line class="cls-3" x1="45.05" y1="17.2" x2="45.05" y2="817.2"/><line class="cls-3" x1="32.05" y1="17.2" x2="32.05" y2="817.2"/><line class="cls-3" x1="19.05" y1="17.2" x2="19.05" y2="817.2"/><line class="cls-3" x1="58.05" y1="17.2" x2="58.05" y2="817.2"/><line class="cls-3" x1="71.05" y1="17.2" x2="71.05" y2="817.2"/><line class="cls-3" x1="84.05" y1="17.2" x2="84.05" y2="817.2"/><line class="cls-3" x1="97.05" y1="17.2" x2="97.05" y2="817.2"/><line class="cls-3" x1="110.05" y1="17.2" x2="110.05" y2="817.2"/><line class="cls-3" x1="123.05" y1="17.2" x2="123.05" y2="817.2"/><line class="cls-3" x1="136.05" y1="17.2" x2="136.05" y2="817.2"/><line class="cls-3" x1="149.05" y1="17.2" x2="149.05" y2="817.2"/><line class="cls-3" x1="162.05" y1="17.2" x2="162.05" y2="817.2"/><line class="cls-3" x1="175.05" y1="17.2" x2="175.05" y2="817.2"/><line class="cls-3" x1="188.05" y1="17.2" x2="188.05" y2="817.2"/><line class="cls-3" x1="201.05" y1="17.2" x2="201.05" y2="817.2"/><line class="cls-3" x1="214.05" y1="17.2" x2="214.05" y2="817.2"/><line class="cls-3" x1="227.05" y1="17.2" x2="227.05" y2="817.2"/><line class="cls-3" x1="240.05" y1="17.2" x2="240.05" y2="817.2"/><line class="cls-3" x1="253.05" y1="17.2" x2="253.05" y2="817.2"/><line class="cls-3" x1="266.05" y1="17.2" x2="266.05" y2="817.2"/><line class="cls-3" x1="279.05" y1="17.2" x2="279.05" y2="817.2"/><line class="cls-3" x1="292.05" y1="17.2" x2="292.05" y2="817.2"/><line class="cls-3" x1="305.05" y1="17.2" x2="305.05" y2="817.2"/><line class="cls-3" x1="318.05" y1="17.2" x2="318.05" y2="817.2"/><line class="cls-3" x1="331.05" y1="17.2" x2="331.05" y2="817.2"/><line class="cls-3" x1="344.05" y1="17.2" x2="344.05" y2="817.2"/><line class="cls-3" x1="357.05" y1="17.2" x2="357.05" y2="817.2"/><line class="cls-3" x1="370.05" y1="17.2" x2="370.05" y2="817.2"/><line class="cls-3" x1="383.05" y1="17.2" x2="383.05" y2="817.2"/><line class="cls-3" x1="396.05" y1="17.2" x2="396.05" y2="817.2"/><line class="cls-3" x1="409.05" y1="17.2" x2="409.05" y2="817.2"/><line class="cls-3" x1="422.05" y1="17.2" x2="422.05" y2="817.2"/><line class="cls-3" x1="435.05" y1="17.2" x2="435.05" y2="817.2"/><line class="cls-3" x1="448.05" y1="17.2" x2="448.05" y2="817.2"/><line class="cls-3" x1="461.05" y1="17.2" x2="461.05" y2="817.2"/><line class="cls-3" x1="474.05" y1="17.2" x2="474.05" y2="817.2"/><line class="cls-3" x1="487.05" y1="17.2" x2="487.05" y2="817.2"/><line class="cls-3" x1="500.05" y1="17.2" x2="500.05" y2="817.2"/><line class="cls-3" x1="513.05" y1="17.2" x2="513.05" y2="817.2"/><line class="cls-3" x1="526.05" y1="17.2" x2="526.05" y2="817.2"/><line class="cls-3" x1="539.05" y1="17.2" x2="539.05" y2="817.2"/><line class="cls-3" x1="552.05" y1="17.2" x2="552.05" y2="817.2"/><line class="cls-3" x1="565.05" y1="17.2" x2="565.05" y2="817.2"/></g><g class="cls-2"><ellipse class="cls-4" cx="23.57" cy="39.22" rx="10.71" ry="10.7"/><ellipse class="cls-4" cx="23.57" cy="68.84" rx="10.71" ry="10.7"/><ellipse class="cls-4" cx="23.57" cy="98.45" rx="10.71" ry="10.7"/><ellipse class="cls-4" cx="23.57" cy="128.06" rx="10.71" ry="10.7"/><ellipse class="cls-4" cx="23.57" cy="157.67" rx="10.71" ry="10.7"/><ellipse class="cls-4" cx="23.57" cy="187.28" rx="10.71" ry="10.7"/><ellipse class="cls-4" cx="23.57" cy="216.89" rx="10.71" ry="10.7"/><ellipse class="cls-4" cx="23.57" cy="246.5" rx="10.71" ry="10.7"/><ellipse class="cls-4" cx="23.57" cy="283.24" rx="17.86" ry="17.83"/><ellipse class="cls-4" cx="23.57" cy="319.99" rx="10.71" ry="10.7"/><ellipse class="cls-4" cx="23.57" cy="349.6" rx="10.71" ry="10.7"/><ellipse class="cls-4" cx="23.57" cy="379.21" rx="10.71" ry="10.7"/><ellipse class="cls-4" cx="23.57" cy="408.82" rx="10.71" ry="10.7"/><ellipse class="cls-4" cx="23.57" cy="438.43" rx="10.71" ry="10.7"/><ellipse class="cls-4" cx="23.57" cy="468.04" rx="10.71" ry="10.7"/><ellipse class="cls-4" cx="23.57" cy="497.65" rx="10.71" ry="10.7"/><ellipse class="cls-4" cx="23.57" cy="527.27" rx="10.71" ry="10.7"/><ellipse class="cls-4" cx="23.57" cy="564.01" rx="17.86" ry="17.83"/><ellipse class="cls-4" cx="23.57" cy="600.75" rx="10.71" ry="10.7"/><ellipse class="cls-4" cx="23.57" cy="630.36" rx="10.71" ry="10.7"/><ellipse class="cls-4" cx="23.57" cy="659.97" rx="10.71" ry="10.7"/><ellipse class="cls-4" cx="23.57" cy="689.58" rx="10.71" ry="10.7"/><ellipse class="cls-4" cx="23.57" cy="719.19" rx="10.71" ry="10.7"/><ellipse class="cls-4" cx="23.57" cy="748.81" rx="10.71" ry="10.7"/><ellipse class="cls-4" cx="23.57" cy="778.42" rx="10.71" ry="10.7"/><ellipse class="cls-4" cx="23.57" cy="808.03" rx="10.71" ry="10.7"/></g><g class="cls-5"><path class="cls-6" d="M317.15,807.24c0,9.47-7.64,22.46-17.11,22.46s-17.19-13-17.19-22.46a17.15,17.15,0,0,1,34.3,0Z"/><path class="cls-7" d="M300,829.72s-.46,11.9-8.05,11.56"/></g></g></g></svg>