<svg xmlns="http://www.w3.org/2000/svg" viewBox="0 0 601 801"><defs><style>.cls-1{fill:#fff;stroke:#e6e6e6;}.cls-1,.cls-3,.cls-4,.cls-6{stroke-miterlimit:10;}.cls-2{fill:#ccc;}.cls-3,.cls-4,.cls-6{fill:none;}.cls-3{stroke:#9da8da;}.cls-4,.cls-6{stroke:#ccc;}.cls-5{opacity:0.6;}.cls-6{stroke-width:0.5px;}</style></defs><title>アセット 49</title><g id="レイヤー_2" data-name="レイヤー 2"><g id="レイヤー_1-2" data-name="レイヤー 1"><rect class="cls-1" x="0.5" y="0.5" width="600" height="800" rx="5"/><ellipse class="cls-2" cx="24.07" cy="16.1" rx="10.71" ry="10.7"/><ellipse class="cls-2" cx="24.07" cy="45.71" rx="10.71" ry="10.7"/><ellipse class="cls-2" cx="24.07" cy="75.32" rx="10.71" ry="10.7"/><ellipse class="cls-2" cx="24.07" cy="104.93" rx="10.71" ry="10.7"/><ellipse class="cls-2" cx="24.07" cy="134.54" rx="10.71" ry="10.7"/><ellipse class="cls-2" cx="24.07" cy="164.15" rx="10.71" ry="10.7"/><ellipse class="cls-2" cx="24.07" cy="193.76" rx="10.71" ry="10.7"/><ellipse class="cls-2" cx="24.07" cy="223.38" rx="10.71" ry="10.7"/><ellipse class="cls-2" cx="24.07" cy="260.12" rx="17.86" ry="17.83"/><ellipse class="cls-2" cx="24.07" cy="296.86" rx="10.71" ry="10.7"/><ellipse class="cls-2" cx="24.07" cy="326.47" rx="10.71" ry="10.7"/><ellipse class="cls-2" cx="24.07" cy="356.08" rx="10.71" ry="10.7"/><ellipse class="cls-2" cx="24.07" cy="385.69" rx="10.71" ry="10.7"/><ellipse class="cls-2" cx="24.07" cy="415.31" rx="10.71" ry="10.7"/><ellipse class="cls-2" cx="24.07" cy="444.92" rx="10.71" ry="10.7"/><ellipse class="cls-2" cx="24.07" cy="474.53" rx="10.71" ry="10.7"/><ellipse class="cls-2" cx="24.07" cy="504.14" rx="10.71" ry="10.7"/><ellipse class="cls-2" cx="24.07" cy="540.88" rx="17.86" ry="17.83"/><ellipse class="cls-2" cx="24.07" cy="577.62" rx="10.71" ry="10.7"/><ellipse class="cls-2" cx="24.07" cy="607.24" rx="10.71" ry="10.7"/><ellipse class="cls-2" cx="24.07" cy="636.85" rx="10.71" ry="10.7"/><ellipse class="cls-2" cx="24.07" cy="666.46" rx="10.71" ry="10.7"/><ellipse class="cls-2" cx="24.07" cy="696.07" rx="10.71" ry="10.7"/><ellipse class="cls-2" cx="24.07" cy="725.68" rx="10.71" ry="10.7"/><ellipse class="cls-2" cx="24.07" cy="755.29" rx="10.71" ry="10.7"/><ellipse class="cls-2" cx="24.07" cy="784.9" rx="10.71" ry="10.7"/><line class="cls-3" x1="575.77" y1="51.2" x2="45.77" y2="51.2"/><line class="cls-3" x1="575.77" y1="80.87" x2="45.77" y2="80.87"/><line class="cls-3" x1="575.77" y1="782.87" x2="45.77" y2="782.87"/><line class="cls-4" x1="575.77" y1="80.87" x2="45.77" y2="80.87"/><line class="cls-4" x1="575.77" y1="106.87" x2="45.77" y2="106.87"/><line class="cls-4" x1="575.77" y1="132.87" x2="45.77" y2="132.87"/><line class="cls-4" x1="45.77" y1="158.87" x2="575.77" y2="158.87"/><line class="cls-4" x1="575.77" y1="184.87" x2="45.77" y2="184.87"/><line class="cls-4" x1="575.77" y1="210.87" x2="45.77" y2="210.87"/><line class="cls-4" x1="575.77" y1="236.87" x2="45.77" y2="236.87"/><line class="cls-4" x1="575.77" y1="262.87" x2="45.77" y2="262.87"/><line class="cls-4" x1="575.77" y1="288.87" x2="45.77" y2="288.87"/><line class="cls-4" x1="575.77" y1="314.87" x2="45.77" y2="314.87"/><line class="cls-4" x1="575.77" y1="340.87" x2="45.77" y2="340.87"/><line class="cls-4" x1="575.77" y1="366.87" x2="45.77" y2="366.87"/><line class="cls-4" x1="575.77" y1="392.87" x2="45.77" y2="392.87"/><line class="cls-4" x1="575.77" y1="418.87" x2="45.77" y2="418.87"/><line class="cls-4" x1="575.77" y1="444.87" x2="45.77" y2="444.87"/><line class="cls-4" x1="575.77" y1="470.87" x2="45.77" y2="470.87"/><line class="cls-4" x1="575.77" y1="496.87" x2="45.77" y2="496.87"/><line class="cls-4" x1="575.77" y1="522.87" x2="45.77" y2="522.87"/><line class="cls-4" x1="575.77" y1="548.87" x2="45.77" y2="548.87"/><line class="cls-4" x1="575.77" y1="574.87" x2="45.77" y2="574.87"/><line class="cls-4" x1="575.77" y1="600.87" x2="45.77" y2="600.87"/><line class="cls-4" x1="575.77" y1="626.87" x2="45.77" y2="626.87"/><line class="cls-4" x1="575.77" y1="652.87" x2="45.77" y2="652.87"/><line class="cls-4" x1="575.77" y1="678.87" x2="45.77" y2="678.87"/><line class="cls-4" x1="575.77" y1="704.87" x2="45.77" y2="704.87"/><line class="cls-4" x1="575.77" y1="730.87" x2="45.77" y2="730.87"/><line class="cls-4" x1="575.77" y1="756.87" x2="45.77" y2="756.87"/><g class="cls-5"><path class="cls-6" d="M317.65,754.41c0,9.48-7.64,22.47-17.11,22.47s-17.19-13-17.19-22.47a17.15,17.15,0,0,1,34.3,0Z"/><path class="cls-6" d="M300.54,776.89s-.46,11.9-8.05,11.56"/></g></g></g></svg>