<svg xmlns="http://www.w3.org/2000/svg" viewBox="0 0 169.96 240"><defs><style>.cls-1{fill:#fffae6;}.cls-2,.cls-4{fill:none;stroke-miterlimit:10;}.cls-2{stroke:#e6e6e6;}.cls-3,.cls-5{fill:#ccc;}.cls-3{opacity:0.6;}.cls-4{stroke:#ccc;stroke-width:0.5px;}</style></defs><title>アセット 29</title><g id="レイヤー_2" data-name="レイヤー 2"><g id="レイヤー_1-2" data-name="レイヤー 1"><rect class="cls-1" width="169.96" height="240" rx="5"/><line class="cls-2" x1="5.63" y1="6.15" x2="5.63" y2="234.01"/><line class="cls-2" x1="10.3" y1="6.15" x2="10.3" y2="234.01"/><line class="cls-2" x1="14.97" y1="6.15" x2="14.97" y2="234.01"/><line class="cls-2" x1="19.64" y1="6.15" x2="19.64" y2="234.01"/><line class="cls-2" x1="24.31" y1="6.15" x2="24.31" y2="234.01"/><line class="cls-2" x1="28.98" y1="6.15" x2="28.98" y2="234.01"/><line class="cls-2" x1="33.65" y1="6.15" x2="33.65" y2="234.01"/><line class="cls-2" x1="38.32" y1="6.15" x2="38.32" y2="234.01"/><line class="cls-2" x1="42.99" y1="6.15" x2="42.99" y2="234.01"/><line class="cls-2" x1="47.65" y1="6.15" x2="47.65" y2="234.01"/><line class="cls-2" x1="52.32" y1="6.15" x2="52.32" y2="234.01"/><line class="cls-2" x1="56.99" y1="6.15" x2="56.99" y2="234.01"/><line class="cls-2" x1="61.66" y1="6.15" x2="61.66" y2="234.01"/><line class="cls-2" x1="66.33" y1="6.15" x2="66.33" y2="234.01"/><line class="cls-2" x1="71" y1="6.15" x2="71" y2="234.01"/><line class="cls-2" x1="75.67" y1="6.15" x2="75.67" y2="234.01"/><line class="cls-2" x1="80.34" y1="6.15" x2="80.34" y2="234.01"/><line class="cls-2" x1="85.01" y1="6.15" x2="85.01" y2="234.01"/><line class="cls-2" x1="89.68" y1="6.15" x2="89.68" y2="234.01"/><line class="cls-2" x1="94.35" y1="6.15" x2="94.35" y2="234.01"/><line class="cls-2" x1="99.02" y1="6.15" x2="99.02" y2="234.01"/><line class="cls-2" x1="103.69" y1="6.15" x2="103.69" y2="234.01"/><line class="cls-2" x1="108.35" y1="6.15" x2="108.35" y2="234.01"/><line class="cls-2" x1="113.02" y1="6.15" x2="113.02" y2="234.01"/><line class="cls-2" x1="117.69" y1="6.15" x2="117.69" y2="234.01"/><line class="cls-2" x1="122.36" y1="6.15" x2="122.36" y2="234.01"/><line class="cls-2" x1="127.03" y1="6.15" x2="127.03" y2="234.01"/><line class="cls-2" x1="131.7" y1="6.15" x2="131.7" y2="234.01"/><line class="cls-2" x1="136.37" y1="6.15" x2="136.37" y2="234.01"/><line class="cls-2" x1="141.04" y1="6.15" x2="141.04" y2="234.01"/><line class="cls-2" x1="145.71" y1="6.15" x2="145.71" y2="234.01"/><line class="cls-2" x1="150.38" y1="6.15" x2="150.38" y2="234.01"/><line class="cls-2" x1="155.05" y1="6.15" x2="155.05" y2="234.01"/><line class="cls-2" x1="159.72" y1="6.15" x2="159.72" y2="234.01"/><line class="cls-2" x1="164.39" y1="6.15" x2="164.39" y2="234.01"/><line class="cls-2" x1="3.53" y1="8.26" x2="166.02" y2="8.26"/><line class="cls-2" x1="3.53" y1="12.92" x2="166.02" y2="12.92"/><line class="cls-2" x1="3.53" y1="17.59" x2="166.02" y2="17.59"/><line class="cls-2" x1="3.53" y1="22.26" x2="166.02" y2="22.26"/><line class="cls-2" x1="3.53" y1="26.93" x2="166.02" y2="26.93"/><line class="cls-2" x1="3.53" y1="31.6" x2="166.02" y2="31.6"/><line class="cls-2" x1="3.53" y1="36.27" x2="166.02" y2="36.27"/><line class="cls-2" x1="3.53" y1="40.94" x2="166.02" y2="40.94"/><line class="cls-2" x1="3.53" y1="45.61" x2="166.02" y2="45.61"/><line class="cls-2" x1="3.53" y1="50.28" x2="166.02" y2="50.28"/><line class="cls-2" x1="3.53" y1="54.95" x2="166.02" y2="54.95"/><line class="cls-2" x1="3.53" y1="59.62" x2="166.02" y2="59.62"/><line class="cls-2" x1="3.53" y1="64.29" x2="166.02" y2="64.29"/><line class="cls-2" x1="3.53" y1="68.96" x2="166.02" y2="68.96"/><line class="cls-2" x1="3.53" y1="73.63" x2="166.02" y2="73.63"/><line class="cls-2" x1="3.53" y1="78.29" x2="166.02" y2="78.29"/><line class="cls-2" x1="3.53" y1="82.96" x2="166.02" y2="82.96"/><line class="cls-2" x1="3.53" y1="87.63" x2="166.02" y2="87.63"/><line class="cls-2" x1="3.53" y1="92.3" x2="166.02" y2="92.3"/><line class="cls-2" x1="3.53" y1="96.97" x2="166.02" y2="96.97"/><line class="cls-2" x1="3.53" y1="101.64" x2="166.02" y2="101.64"/><line class="cls-2" x1="3.53" y1="106.31" x2="166.02" y2="106.31"/><line class="cls-2" x1="3.53" y1="110.98" x2="166.02" y2="110.98"/><line class="cls-2" x1="3.53" y1="115.65" x2="166.02" y2="115.65"/><line class="cls-2" x1="3.53" y1="120.32" x2="166.02" y2="120.32"/><line class="cls-2" x1="3.53" y1="124.99" x2="166.02" y2="124.99"/><line class="cls-2" x1="3.53" y1="129.66" x2="166.02" y2="129.66"/><line class="cls-2" x1="3.53" y1="134.33" x2="166.02" y2="134.33"/><line class="cls-2" x1="3.53" y1="139" x2="166.02" y2="139"/><line class="cls-2" x1="3.53" y1="143.66" x2="166.02" y2="143.66"/><line class="cls-2" x1="3.53" y1="148.33" x2="166.02" y2="148.33"/><line class="cls-2" x1="3.53" y1="153" x2="166.02" y2="153"/><line class="cls-2" x1="3.53" y1="157.67" x2="166.02" y2="157.67"/><line class="cls-2" x1="3.53" y1="162.34" x2="166.02" y2="162.34"/><line class="cls-2" x1="3.53" y1="167.01" x2="166.02" y2="167.01"/><line class="cls-2" x1="3.53" y1="171.68" x2="166.02" y2="171.68"/><line class="cls-2" x1="3.53" y1="176.35" x2="166.02" y2="176.35"/><line class="cls-2" x1="3.53" y1="181.02" x2="166.02" y2="181.02"/><line class="cls-2" x1="3.53" y1="185.69" x2="166.02" y2="185.69"/><line class="cls-2" x1="3.53" y1="190.36" x2="166.02" y2="190.36"/><line class="cls-2" x1="3.53" y1="195.03" x2="166.02" y2="195.03"/><line class="cls-2" x1="3.53" y1="199.7" x2="166.02" y2="199.7"/><line class="cls-2" x1="3.53" y1="204.36" x2="166.02" y2="204.36"/><line class="cls-2" x1="3.53" y1="209.03" x2="166.02" y2="209.03"/><line class="cls-2" x1="3.53" y1="213.7" x2="166.02" y2="213.7"/><line class="cls-2" x1="3.53" y1="218.37" x2="166.02" y2="218.37"/><line class="cls-2" x1="3.53" y1="223.04" x2="166.02" y2="223.04"/><line class="cls-2" x1="3.53" y1="227.71" x2="166.02" y2="227.71"/><line class="cls-2" x1="3.53" y1="232.38" x2="166.02" y2="232.38"/><path class="cls-3" d="M89.84,228.75c0,2.68-2.16,6.36-4.85,6.36s-4.87-3.68-4.87-6.36a4.86,4.86,0,1,1,9.72,0Z"/><path class="cls-4" d="M85,235.12s-.13,3.37-2.28,3.27"/><ellipse class="cls-5" cx="9.51" cy="11.11" rx="3.04" ry="3.03"/><ellipse class="cls-5" cx="9.51" cy="19.5" rx="3.04" ry="3.03"/><ellipse class="cls-5" cx="9.51" cy="27.89" rx="3.04" ry="3.03"/><ellipse class="cls-5" cx="9.51" cy="36.27" rx="3.04" ry="3.03"/><ellipse class="cls-5" cx="9.51" cy="44.66" rx="3.04" ry="3.03"/><ellipse class="cls-5" cx="9.51" cy="53.05" rx="3.04" ry="3.03"/><ellipse class="cls-5" cx="9.51" cy="61.44" rx="3.04" ry="3.03"/><ellipse class="cls-5" cx="9.51" cy="69.83" rx="3.04" ry="3.03"/><ellipse class="cls-5" cx="9.51" cy="80.23" rx="5.06" ry="5.05"/><ellipse class="cls-5" cx="9.51" cy="90.64" rx="3.04" ry="3.03"/><ellipse class="cls-5" cx="9.51" cy="99.03" rx="3.04" ry="3.03"/><ellipse class="cls-5" cx="9.51" cy="107.42" rx="3.04" ry="3.03"/><ellipse class="cls-5" cx="9.51" cy="115.81" rx="3.04" ry="3.03"/><ellipse class="cls-5" cx="9.51" cy="124.19" rx="3.04" ry="3.03"/><ellipse class="cls-5" cx="9.51" cy="132.58" rx="3.04" ry="3.03"/><ellipse class="cls-5" cx="9.51" cy="140.97" rx="3.04" ry="3.03"/><ellipse class="cls-5" cx="9.51" cy="149.36" rx="3.04" ry="3.03"/><ellipse class="cls-5" cx="9.51" cy="159.77" rx="5.06" ry="5.05"/><ellipse class="cls-5" cx="9.51" cy="170.17" rx="3.04" ry="3.03"/><ellipse class="cls-5" cx="9.51" cy="178.56" rx="3.04" ry="3.03"/><ellipse class="cls-5" cx="9.51" cy="186.95" rx="3.04" ry="3.03"/><ellipse class="cls-5" cx="9.51" cy="195.34" rx="3.04" ry="3.03"/><ellipse class="cls-5" cx="9.51" cy="203.73" rx="3.04" ry="3.03"/><ellipse class="cls-5" cx="9.51" cy="212.11" rx="3.04" ry="3.03"/><ellipse class="cls-5" cx="9.51" cy="220.5" rx="3.04" ry="3.03"/><ellipse class="cls-5" cx="9.51" cy="228.89" rx="3.04" ry="3.03"/></g></g></svg>