<svg xmlns="http://www.w3.org/2000/svg" viewBox="0 0 601 848.25"><defs><style>.cls-1{fill:#fff;stroke:#e6e6e6;}.cls-1,.cls-4,.cls-5,.cls-7{stroke-miterlimit:10;}.cls-2{opacity:0.8;}.cls-3{fill:#ccc;}.cls-4,.cls-5,.cls-7{fill:none;}.cls-4{stroke:#9da8da;}.cls-5,.cls-7{stroke:#ccc;}.cls-6{opacity:0.6;}.cls-7{stroke-width:0.5px;}</style></defs><title>アセット 72</title><g id="レイヤー_2" data-name="レイヤー 2"><g id="レイヤー_1-2" data-name="レイヤー 1"><rect class="cls-1" x="0.5" y="0.5" width="600" height="847.25" rx="5"/><g class="cls-2"><ellipse class="cls-3" cx="24.07" cy="39.72" rx="10.71" ry="10.7"/><ellipse class="cls-3" cx="24.07" cy="69.34" rx="10.71" ry="10.7"/><ellipse class="cls-3" cx="24.07" cy="98.95" rx="10.71" ry="10.7"/><ellipse class="cls-3" cx="24.07" cy="128.56" rx="10.71" ry="10.7"/><ellipse class="cls-3" cx="24.07" cy="158.17" rx="10.71" ry="10.7"/><ellipse class="cls-3" cx="24.07" cy="187.78" rx="10.71" ry="10.7"/><ellipse class="cls-3" cx="24.07" cy="217.39" rx="10.71" ry="10.7"/><ellipse class="cls-3" cx="24.07" cy="247" rx="10.71" ry="10.7"/><ellipse class="cls-3" cx="24.07" cy="283.74" rx="17.86" ry="17.83"/><ellipse class="cls-3" cx="24.07" cy="320.49" rx="10.71" ry="10.7"/><ellipse class="cls-3" cx="24.07" cy="350.1" rx="10.71" ry="10.7"/><ellipse class="cls-3" cx="24.07" cy="379.71" rx="10.71" ry="10.7"/><ellipse class="cls-3" cx="24.07" cy="409.32" rx="10.71" ry="10.7"/><ellipse class="cls-3" cx="24.07" cy="438.93" rx="10.71" ry="10.7"/><ellipse class="cls-3" cx="24.07" cy="468.54" rx="10.71" ry="10.7"/><ellipse class="cls-3" cx="24.07" cy="498.15" rx="10.71" ry="10.7"/><ellipse class="cls-3" cx="24.07" cy="527.77" rx="10.71" ry="10.7"/><ellipse class="cls-3" cx="24.07" cy="564.51" rx="17.86" ry="17.83"/><ellipse class="cls-3" cx="24.07" cy="601.25" rx="10.71" ry="10.7"/><ellipse class="cls-3" cx="24.07" cy="630.86" rx="10.71" ry="10.7"/><ellipse class="cls-3" cx="24.07" cy="660.47" rx="10.71" ry="10.7"/><ellipse class="cls-3" cx="24.07" cy="690.08" rx="10.71" ry="10.7"/><ellipse class="cls-3" cx="24.07" cy="719.69" rx="10.71" ry="10.7"/><ellipse class="cls-3" cx="24.07" cy="749.31" rx="10.71" ry="10.7"/><ellipse class="cls-3" cx="24.07" cy="778.92" rx="10.71" ry="10.7"/><ellipse class="cls-3" cx="24.07" cy="808.53" rx="10.71" ry="10.7"/></g><g class="cls-2"><line class="cls-4" x1="575.77" y1="74.83" x2="45.77" y2="74.83"/><line class="cls-4" x1="575.77" y1="104.5" x2="45.77" y2="104.5"/><line class="cls-4" x1="575.77" y1="806.5" x2="45.77" y2="806.5"/><line class="cls-5" x1="575.77" y1="104.5" x2="45.77" y2="104.5"/><line class="cls-5" x1="575.77" y1="130.5" x2="45.77" y2="130.5"/><line class="cls-5" x1="575.77" y1="156.5" x2="45.77" y2="156.5"/><line class="cls-5" x1="45.77" y1="182.5" x2="575.77" y2="182.5"/><line class="cls-5" x1="575.77" y1="208.5" x2="45.77" y2="208.5"/><line class="cls-5" x1="575.77" y1="234.5" x2="45.77" y2="234.5"/><line class="cls-5" x1="575.77" y1="260.5" x2="45.77" y2="260.5"/><line class="cls-5" x1="575.77" y1="286.5" x2="45.77" y2="286.5"/><line class="cls-5" x1="575.77" y1="312.5" x2="45.77" y2="312.5"/><line class="cls-5" x1="575.77" y1="338.5" x2="45.77" y2="338.5"/><line class="cls-5" x1="575.77" y1="364.5" x2="45.77" y2="364.5"/><line class="cls-5" x1="575.77" y1="390.5" x2="45.77" y2="390.5"/><line class="cls-5" x1="575.77" y1="416.5" x2="45.77" y2="416.5"/><line class="cls-5" x1="575.77" y1="442.5" x2="45.77" y2="442.5"/><line class="cls-5" x1="575.77" y1="468.5" x2="45.77" y2="468.5"/><line class="cls-5" x1="575.77" y1="494.5" x2="45.77" y2="494.5"/><line class="cls-5" x1="575.77" y1="520.5" x2="45.77" y2="520.5"/><line class="cls-5" x1="575.77" y1="546.5" x2="45.77" y2="546.5"/><line class="cls-5" x1="575.77" y1="572.5" x2="45.77" y2="572.5"/><line class="cls-5" x1="575.77" y1="598.5" x2="45.77" y2="598.5"/><line class="cls-5" x1="575.77" y1="624.5" x2="45.77" y2="624.5"/><line class="cls-5" x1="575.77" y1="650.5" x2="45.77" y2="650.5"/><line class="cls-5" x1="575.77" y1="676.5" x2="45.77" y2="676.5"/><line class="cls-5" x1="575.77" y1="702.5" x2="45.77" y2="702.5"/><line class="cls-5" x1="575.77" y1="728.5" x2="45.77" y2="728.5"/><line class="cls-5" x1="575.77" y1="754.5" x2="45.77" y2="754.5"/><line class="cls-5" x1="575.77" y1="780.5" x2="45.77" y2="780.5"/></g><g class="cls-6"><path class="cls-7" d="M317.65,808c0,9.47-7.64,22.46-17.11,22.46s-17.19-13-17.19-22.46a17.15,17.15,0,1,1,34.3,0Z"/><path class="cls-7" d="M300.54,830.52s-.46,11.9-8.05,11.56"/></g></g></g></svg>