<svg xmlns="http://www.w3.org/2000/svg" viewBox="0 0 600 270"><defs><style>.cls-1{fill:#fffae6;}.cls-2{opacity:0.8;}.cls-3{fill:none;stroke:#e6e6e6;stroke-miterlimit:10;}.cls-4{fill:#ccc;}</style></defs><title>アセット 63</title><g id="レイヤー_2" data-name="レイヤー 2"><g id="レイヤー_1-2" data-name="レイヤー 1"><rect class="cls-1" width="600" height="270" rx="5"/><g class="cls-2"><line class="cls-3" x1="585" y1="130" x2="10" y2="130"/><line class="cls-3" x1="585" y1="117" x2="10" y2="117"/><line class="cls-3" x1="585" y1="104" x2="10" y2="104"/><line class="cls-3" x1="585" y1="91" x2="10" y2="91"/><line class="cls-3" x1="585" y1="78" x2="10" y2="78"/><line class="cls-3" x1="585" y1="65" x2="10" y2="65"/><line class="cls-3" x1="585" y1="52" x2="10" y2="52"/><line class="cls-3" x1="585" y1="39" x2="10" y2="39"/><line class="cls-3" x1="585" y1="26" x2="10" y2="26"/><line class="cls-3" x1="585" y1="143" x2="10" y2="143"/><line class="cls-3" x1="585" y1="156" x2="10" y2="156"/><line class="cls-3" x1="585" y1="169" x2="10" y2="169"/><line class="cls-3" x1="585" y1="182" x2="10" y2="182"/><line class="cls-3" x1="585" y1="195" x2="10" y2="195"/><line class="cls-3" x1="585" y1="208" x2="10" y2="208"/><line class="cls-3" x1="585" y1="221" x2="10" y2="221"/><line class="cls-3" x1="585" y1="234" x2="10" y2="234"/><line class="cls-3" x1="585" y1="247" x2="10" y2="247"/><line class="cls-3" x1="585" y1="260" x2="10" y2="260"/><line class="cls-3" x1="45.05" y1="17.2" x2="45.05" y2="259.7"/><line class="cls-3" x1="32.05" y1="17.2" x2="32.05" y2="259.7"/><line class="cls-3" x1="19.05" y1="17.2" x2="19.05" y2="259.7"/><line class="cls-3" x1="58.05" y1="17.2" x2="58.05" y2="259.7"/><line class="cls-3" x1="71.05" y1="17.2" x2="71.05" y2="259.7"/><line class="cls-3" x1="84.05" y1="17.2" x2="84.05" y2="259.7"/><line class="cls-3" x1="97.05" y1="17.2" x2="97.05" y2="259.7"/><line class="cls-3" x1="110.05" y1="17.2" x2="110.05" y2="259.7"/><line class="cls-3" x1="123.05" y1="17.2" x2="123.05" y2="259.7"/><line class="cls-3" x1="136.05" y1="17.2" x2="136.05" y2="259.7"/><line class="cls-3" x1="149.05" y1="17.2" x2="149.05" y2="259.7"/><line class="cls-3" x1="162.05" y1="17.2" x2="162.05" y2="259.7"/><line class="cls-3" x1="175.05" y1="17.2" x2="175.05" y2="259.7"/><line class="cls-3" x1="188.05" y1="17.2" x2="188.05" y2="259.7"/><line class="cls-3" x1="201.05" y1="17.2" x2="201.05" y2="259.7"/><line class="cls-3" x1="214.05" y1="17.2" x2="214.05" y2="259.7"/><line class="cls-3" x1="227.05" y1="17.2" x2="227.05" y2="259.7"/><line class="cls-3" x1="240.05" y1="17.2" x2="240.05" y2="259.7"/><line class="cls-3" x1="253.05" y1="17.2" x2="253.05" y2="259.7"/><line class="cls-3" x1="266.05" y1="17.2" x2="266.05" y2="259.7"/><line class="cls-3" x1="279.05" y1="17.2" x2="279.05" y2="259.7"/><line class="cls-3" x1="292.05" y1="17.2" x2="292.05" y2="259.7"/><line class="cls-3" x1="305.05" y1="17.2" x2="305.05" y2="259.7"/><line class="cls-3" x1="318.05" y1="17.2" x2="318.05" y2="259.7"/><line class="cls-3" x1="331.05" y1="17.2" x2="331.05" y2="259.7"/><line class="cls-3" x1="344.05" y1="17.2" x2="344.05" y2="259.7"/><line class="cls-3" x1="357.05" y1="17.2" x2="357.05" y2="259.7"/><line class="cls-3" x1="370.05" y1="17.2" x2="370.05" y2="259.7"/><line class="cls-3" x1="383.05" y1="17.2" x2="383.05" y2="259.7"/><line class="cls-3" x1="396.05" y1="17.2" x2="396.05" y2="259.7"/><line class="cls-3" x1="409.05" y1="17.2" x2="409.05" y2="259.7"/><line class="cls-3" x1="422.05" y1="17.2" x2="422.05" y2="259.7"/><line class="cls-3" x1="435.05" y1="17.2" x2="435.05" y2="259.7"/><line class="cls-3" x1="448.05" y1="17.2" x2="448.05" y2="259.7"/><line class="cls-3" x1="461.05" y1="17.2" x2="461.05" y2="259.7"/><line class="cls-3" x1="474.05" y1="17.2" x2="474.05" y2="259.7"/><line class="cls-3" x1="487.05" y1="17.2" x2="487.05" y2="259.7"/><line class="cls-3" x1="500.05" y1="17.2" x2="500.05" y2="259.7"/><line class="cls-3" x1="513.05" y1="17.2" x2="513.05" y2="259.7"/><line class="cls-3" x1="526.05" y1="17.2" x2="526.05" y2="259.7"/><line class="cls-3" x1="539.05" y1="17.2" x2="539.05" y2="259.7"/><line class="cls-3" x1="552.05" y1="17.2" x2="552.05" y2="259.7"/><line class="cls-3" x1="565.05" y1="17.2" x2="565.05" y2="259.7"/></g><g class="cls-2"><ellipse class="cls-4" cx="23.57" cy="39.22" rx="10.71" ry="10.7"/><ellipse class="cls-4" cx="23.57" cy="68.84" rx="10.71" ry="10.7"/><ellipse class="cls-4" cx="23.57" cy="98.45" rx="10.71" ry="10.7"/><ellipse class="cls-4" cx="23.57" cy="128.06" rx="10.71" ry="10.7"/><ellipse class="cls-4" cx="23.57" cy="157.67" rx="10.71" ry="10.7"/><ellipse class="cls-4" cx="23.57" cy="187.28" rx="10.71" ry="10.7"/><ellipse class="cls-4" cx="23.57" cy="216.89" rx="10.71" ry="10.7"/><ellipse class="cls-4" cx="23.57" cy="246.5" rx="10.71" ry="10.7"/></g></g></g></svg>