<svg xmlns="http://www.w3.org/2000/svg" viewBox="0 0 169.96 240"><defs><style>.cls-1{fill:#fffae6;}.cls-2{fill:#ccc;}.cls-3,.cls-4,.cls-6{fill:none;stroke-miterlimit:10;}.cls-3,.cls-6{stroke:#ccc;}.cls-4{stroke:#b3b3b3;}.cls-5{opacity:0.6;}.cls-6{stroke-width:0.5px;}</style></defs><title>アセット 30</title><g id="レイヤー_2" data-name="レイヤー 2"><g id="レイヤー_1-2" data-name="レイヤー 1"><rect class="cls-1" width="169.96" height="240" rx="5"/><ellipse class="cls-2" cx="9.51" cy="11.11" rx="3.04" ry="3.03"/><ellipse class="cls-2" cx="9.51" cy="19.5" rx="3.04" ry="3.03"/><ellipse class="cls-2" cx="9.51" cy="27.89" rx="3.04" ry="3.03"/><ellipse class="cls-2" cx="9.51" cy="36.27" rx="3.04" ry="3.03"/><ellipse class="cls-2" cx="9.51" cy="44.66" rx="3.04" ry="3.03"/><ellipse class="cls-2" cx="9.51" cy="53.05" rx="3.04" ry="3.03"/><ellipse class="cls-2" cx="9.51" cy="61.44" rx="3.04" ry="3.03"/><ellipse class="cls-2" cx="9.51" cy="69.83" rx="3.04" ry="3.03"/><ellipse class="cls-2" cx="9.51" cy="80.23" rx="5.06" ry="5.05"/><ellipse class="cls-2" cx="9.51" cy="90.64" rx="3.04" ry="3.03"/><ellipse class="cls-2" cx="9.51" cy="99.03" rx="3.04" ry="3.03"/><ellipse class="cls-2" cx="9.51" cy="107.42" rx="3.04" ry="3.03"/><ellipse class="cls-2" cx="9.51" cy="115.81" rx="3.04" ry="3.03"/><ellipse class="cls-2" cx="9.51" cy="124.19" rx="3.04" ry="3.03"/><ellipse class="cls-2" cx="9.51" cy="132.58" rx="3.04" ry="3.03"/><ellipse class="cls-2" cx="9.51" cy="140.97" rx="3.04" ry="3.03"/><ellipse class="cls-2" cx="9.51" cy="149.36" rx="3.04" ry="3.03"/><ellipse class="cls-2" cx="9.51" cy="159.77" rx="5.06" ry="5.05"/><ellipse class="cls-2" cx="9.51" cy="170.17" rx="3.04" ry="3.03"/><ellipse class="cls-2" cx="9.51" cy="178.56" rx="3.04" ry="3.03"/><ellipse class="cls-2" cx="9.51" cy="186.95" rx="3.04" ry="3.03"/><ellipse class="cls-2" cx="9.51" cy="195.34" rx="3.04" ry="3.03"/><ellipse class="cls-2" cx="9.51" cy="203.73" rx="3.04" ry="3.03"/><ellipse class="cls-2" cx="9.51" cy="212.11" rx="3.04" ry="3.03"/><ellipse class="cls-2" cx="9.51" cy="220.5" rx="3.04" ry="3.03"/><ellipse class="cls-2" cx="9.51" cy="228.89" rx="3.04" ry="3.03"/><line class="cls-3" x1="162.96" y1="19.5" x2="18.68" y2="19.5"/><line class="cls-4" x1="162.96" y1="27.9" x2="18.68" y2="27.9"/><line class="cls-4" x1="162.96" y1="228.68" x2="18.68" y2="228.68"/><line class="cls-3" x1="162.96" y1="33.48" x2="18.68" y2="33.48"/><line class="cls-3" x1="162.96" y1="39.06" x2="18.68" y2="39.06"/><line class="cls-3" x1="162.96" y1="44.64" x2="18.68" y2="44.64"/><line class="cls-3" x1="162.96" y1="50.21" x2="18.68" y2="50.21"/><line class="cls-3" x1="162.96" y1="55.79" x2="18.68" y2="55.79"/><line class="cls-3" x1="162.96" y1="61.37" x2="18.68" y2="61.37"/><line class="cls-3" x1="162.96" y1="66.94" x2="18.68" y2="66.94"/><line class="cls-3" x1="162.96" y1="72.52" x2="18.68" y2="72.52"/><line class="cls-3" x1="162.96" y1="78.1" x2="18.68" y2="78.1"/><line class="cls-3" x1="162.96" y1="83.68" x2="18.68" y2="83.68"/><line class="cls-3" x1="162.96" y1="89.25" x2="18.68" y2="89.25"/><line class="cls-3" x1="162.96" y1="94.83" x2="18.68" y2="94.83"/><line class="cls-3" x1="162.96" y1="100.41" x2="18.68" y2="100.41"/><line class="cls-3" x1="162.96" y1="105.98" x2="18.68" y2="105.98"/><line class="cls-3" x1="162.96" y1="111.56" x2="18.68" y2="111.56"/><line class="cls-3" x1="162.96" y1="117.14" x2="18.68" y2="117.14"/><line class="cls-3" x1="162.96" y1="122.72" x2="18.68" y2="122.72"/><line class="cls-3" x1="162.96" y1="128.29" x2="18.68" y2="128.29"/><line class="cls-3" x1="162.96" y1="133.87" x2="18.68" y2="133.87"/><line class="cls-3" x1="162.96" y1="139.45" x2="18.68" y2="139.45"/><line class="cls-3" x1="162.96" y1="145.02" x2="18.68" y2="145.02"/><line class="cls-3" x1="162.96" y1="150.6" x2="18.68" y2="150.6"/><line class="cls-3" x1="162.96" y1="156.18" x2="18.68" y2="156.18"/><line class="cls-3" x1="162.96" y1="161.76" x2="18.68" y2="161.76"/><line class="cls-3" x1="162.96" y1="167.33" x2="18.68" y2="167.33"/><line class="cls-3" x1="162.96" y1="172.91" x2="18.68" y2="172.91"/><line class="cls-3" x1="162.96" y1="178.49" x2="18.68" y2="178.49"/><line class="cls-3" x1="162.96" y1="184.06" x2="18.68" y2="184.06"/><line class="cls-3" x1="162.96" y1="189.64" x2="18.68" y2="189.64"/><line class="cls-3" x1="162.96" y1="195.22" x2="18.68" y2="195.22"/><line class="cls-3" x1="162.96" y1="200.8" x2="18.68" y2="200.8"/><line class="cls-3" x1="162.96" y1="206.37" x2="18.68" y2="206.37"/><line class="cls-3" x1="162.96" y1="211.95" x2="18.68" y2="211.95"/><line class="cls-3" x1="162.96" y1="217.53" x2="18.68" y2="217.53"/><line class="cls-3" x1="162.96" y1="223.1" x2="18.68" y2="223.1"/><g class="cls-5"><path class="cls-6" d="M89.84,228.75c0,2.68-2.16,6.36-4.85,6.36s-4.87-3.68-4.87-6.36a4.86,4.86,0,1,1,9.72,0Z"/><path class="cls-6" d="M85,235.12s-.13,3.37-2.28,3.27"/></g></g></g></svg>