<svg xmlns="http://www.w3.org/2000/svg" viewBox="0 0 601 848.25"><defs><style>.cls-1{fill:#fff;stroke:#e6e6e6;}.cls-1,.cls-3,.cls-5{stroke-miterlimit:10;}.cls-2{opacity:0.6;}.cls-3,.cls-5{fill:none;stroke:#ccc;}.cls-3{stroke-width:0.5px;}.cls-4{opacity:0.8;}</style></defs><title>アセット 70</title><g id="レイヤー_2" data-name="レイヤー 2"><g id="レイヤー_1-2" data-name="レイヤー 1"><rect class="cls-1" x="0.5" y="0.5" width="600" height="847.25" rx="5"/><g class="cls-2"><path class="cls-3" d="M317.65,808c0,9.47-7.64,22.46-17.11,22.46s-17.19-13-17.19-22.46a17.15,17.15,0,1,1,34.3,0Z"/><path class="cls-3" d="M300.54,830.52s-.46,11.9-8.05,11.56"/></g><g class="cls-4"><line class="cls-5" x1="555.83" y1="104.5" x2="45.83" y2="104.5"/><line class="cls-5" x1="555.83" y1="156.5" x2="45.83" y2="156.5"/><line class="cls-5" x1="555.83" y1="208.5" x2="45.83" y2="208.5"/><line class="cls-5" x1="555.83" y1="260.5" x2="45.83" y2="260.5"/><line class="cls-5" x1="555.83" y1="312.5" x2="45.83" y2="312.5"/><line class="cls-5" x1="555.83" y1="364.5" x2="45.83" y2="364.5"/><line class="cls-5" x1="555.83" y1="416.5" x2="45.83" y2="416.5"/><line class="cls-5" x1="555.83" y1="468.5" x2="45.83" y2="468.5"/><line class="cls-5" x1="555.83" y1="520.5" x2="45.83" y2="520.5"/><line class="cls-5" x1="555.83" y1="572.5" x2="45.83" y2="572.5"/><line class="cls-5" x1="555.83" y1="624.5" x2="45.83" y2="624.5"/><line class="cls-5" x1="555.83" y1="676.5" x2="45.83" y2="676.5"/><line class="cls-5" x1="555.83" y1="728.5" x2="45.83" y2="728.5"/><line class="cls-5" x1="555.83" y1="780.5" x2="45.83" y2="780.5"/></g></g></g></svg>