<svg xmlns="http://www.w3.org/2000/svg" viewBox="0 0 601 271"><defs><style>.cls-1{fill:#fff;stroke:#e6e6e6;}.cls-1,.cls-3,.cls-4{stroke-miterlimit:10;}.cls-2{fill:#ccc;}.cls-3,.cls-4{fill:none;}.cls-3{stroke:#9da8da;}.cls-4{stroke:#ccc;}</style></defs><title>アセット 54</title><g id="レイヤー_2" data-name="レイヤー 2"><g id="レイヤー_1-2" data-name="レイヤー 1"><rect class="cls-1" x="0.5" y="0.5" width="600" height="270" rx="5"/><ellipse class="cls-2" cx="24.07" cy="39.72" rx="10.71" ry="10.7"/><ellipse class="cls-2" cx="24.07" cy="69.34" rx="10.71" ry="10.7"/><ellipse class="cls-2" cx="24.07" cy="98.95" rx="10.71" ry="10.7"/><ellipse class="cls-2" cx="24.07" cy="128.56" rx="10.71" ry="10.7"/><ellipse class="cls-2" cx="24.07" cy="158.17" rx="10.71" ry="10.7"/><ellipse class="cls-2" cx="24.07" cy="187.78" rx="10.71" ry="10.7"/><ellipse class="cls-2" cx="24.07" cy="217.39" rx="10.71" ry="10.7"/><ellipse class="cls-2" cx="24.07" cy="247" rx="10.71" ry="10.7"/><line class="cls-3" x1="575.77" y1="74.83" x2="45.77" y2="74.83"/><line class="cls-3" x1="575.77" y1="104.5" x2="45.77" y2="104.5"/><line class="cls-4" x1="575.77" y1="104.5" x2="45.77" y2="104.5"/><line class="cls-4" x1="575.77" y1="130.5" x2="45.77" y2="130.5"/><line class="cls-4" x1="575.77" y1="156.5" x2="45.77" y2="156.5"/><line class="cls-4" x1="45.77" y1="182.5" x2="575.77" y2="182.5"/><line class="cls-4" x1="575.77" y1="208.5" x2="45.77" y2="208.5"/><line class="cls-4" x1="575.77" y1="234.5" x2="45.77" y2="234.5"/><line class="cls-4" x1="575.77" y1="260.5" x2="45.77" y2="260.5"/></g></g></svg>