<svg xmlns="http://www.w3.org/2000/svg" viewBox="0 0 170.96 241"><defs><style>.cls-1{fill:#fff;stroke:#e6e6e6;}.cls-1,.cls-3,.cls-4,.cls-6{stroke-miterlimit:10;}.cls-2{fill:#ccc;}.cls-3,.cls-4,.cls-6{fill:none;}.cls-3{stroke:#9da8da;}.cls-4,.cls-6{stroke:#ccc;}.cls-5{opacity:0.6;}.cls-6{stroke-width:0.5px;}</style></defs><title>アセット 27</title><g id="レイヤー_2" data-name="レイヤー 2"><g id="レイヤー_1-2" data-name="レイヤー 1"><rect class="cls-1" x="0.5" y="0.5" width="169.96" height="240" rx="5"/><ellipse class="cls-2" cx="10.01" cy="11.61" rx="3.04" ry="3.03"/><ellipse class="cls-2" cx="10.01" cy="20" rx="3.04" ry="3.03"/><ellipse class="cls-2" cx="10.01" cy="28.39" rx="3.04" ry="3.03"/><ellipse class="cls-2" cx="10.01" cy="36.77" rx="3.04" ry="3.03"/><ellipse class="cls-2" cx="10.01" cy="45.16" rx="3.04" ry="3.03"/><ellipse class="cls-2" cx="10.01" cy="53.55" rx="3.04" ry="3.03"/><ellipse class="cls-2" cx="10.01" cy="61.94" rx="3.04" ry="3.03"/><ellipse class="cls-2" cx="10.01" cy="70.33" rx="3.04" ry="3.03"/><ellipse class="cls-2" cx="10.01" cy="80.73" rx="5.06" ry="5.05"/><ellipse class="cls-2" cx="10.01" cy="91.14" rx="3.04" ry="3.03"/><ellipse class="cls-2" cx="10.01" cy="99.53" rx="3.04" ry="3.03"/><ellipse class="cls-2" cx="10.01" cy="107.92" rx="3.04" ry="3.03"/><ellipse class="cls-2" cx="10.01" cy="116.31" rx="3.04" ry="3.03"/><ellipse class="cls-2" cx="10.01" cy="124.69" rx="3.04" ry="3.03"/><ellipse class="cls-2" cx="10.01" cy="133.08" rx="3.04" ry="3.03"/><ellipse class="cls-2" cx="10.01" cy="141.47" rx="3.04" ry="3.03"/><ellipse class="cls-2" cx="10.01" cy="149.86" rx="3.04" ry="3.03"/><ellipse class="cls-2" cx="10.01" cy="160.27" rx="5.06" ry="5.05"/><ellipse class="cls-2" cx="10.01" cy="170.67" rx="3.04" ry="3.03"/><ellipse class="cls-2" cx="10.01" cy="179.06" rx="3.04" ry="3.03"/><ellipse class="cls-2" cx="10.01" cy="187.45" rx="3.04" ry="3.03"/><ellipse class="cls-2" cx="10.01" cy="195.84" rx="3.04" ry="3.03"/><ellipse class="cls-2" cx="10.01" cy="204.23" rx="3.04" ry="3.03"/><ellipse class="cls-2" cx="10.01" cy="212.61" rx="3.04" ry="3.03"/><ellipse class="cls-2" cx="10.01" cy="221" rx="3.04" ry="3.03"/><ellipse class="cls-2" cx="10.01" cy="229.39" rx="3.04" ry="3.03"/><line class="cls-3" x1="163.46" y1="20" x2="19.18" y2="20"/><line class="cls-3" x1="163.46" y1="28.4" x2="19.18" y2="28.4"/><line class="cls-3" x1="163.46" y1="229.18" x2="19.18" y2="229.18"/><line class="cls-4" x1="163.46" y1="33.98" x2="19.18" y2="33.98"/><line class="cls-4" x1="163.46" y1="39.56" x2="19.18" y2="39.56"/><line class="cls-4" x1="163.46" y1="45.14" x2="19.18" y2="45.14"/><line class="cls-4" x1="163.46" y1="50.71" x2="19.18" y2="50.71"/><line class="cls-4" x1="163.46" y1="56.29" x2="19.18" y2="56.29"/><line class="cls-4" x1="163.46" y1="61.87" x2="19.18" y2="61.87"/><line class="cls-4" x1="163.46" y1="67.44" x2="19.18" y2="67.44"/><line class="cls-4" x1="163.46" y1="73.02" x2="19.18" y2="73.02"/><line class="cls-4" x1="163.46" y1="78.6" x2="19.18" y2="78.6"/><line class="cls-4" x1="163.46" y1="84.18" x2="19.18" y2="84.18"/><line class="cls-4" x1="163.46" y1="89.75" x2="19.18" y2="89.75"/><line class="cls-4" x1="163.46" y1="95.33" x2="19.18" y2="95.33"/><line class="cls-4" x1="163.46" y1="100.91" x2="19.18" y2="100.91"/><line class="cls-4" x1="163.46" y1="106.48" x2="19.18" y2="106.48"/><line class="cls-4" x1="163.46" y1="112.06" x2="19.18" y2="112.06"/><line class="cls-4" x1="163.46" y1="117.64" x2="19.18" y2="117.64"/><line class="cls-4" x1="163.46" y1="123.22" x2="19.18" y2="123.22"/><line class="cls-4" x1="163.46" y1="128.79" x2="19.18" y2="128.79"/><line class="cls-4" x1="163.46" y1="134.37" x2="19.18" y2="134.37"/><line class="cls-4" x1="163.46" y1="139.95" x2="19.18" y2="139.95"/><line class="cls-4" x1="163.46" y1="145.52" x2="19.18" y2="145.52"/><line class="cls-4" x1="163.46" y1="151.1" x2="19.18" y2="151.1"/><line class="cls-4" x1="163.46" y1="156.68" x2="19.18" y2="156.68"/><line class="cls-4" x1="163.46" y1="162.26" x2="19.18" y2="162.26"/><line class="cls-4" x1="163.46" y1="167.83" x2="19.18" y2="167.83"/><line class="cls-4" x1="163.46" y1="173.41" x2="19.18" y2="173.41"/><line class="cls-4" x1="163.46" y1="178.99" x2="19.18" y2="178.99"/><line class="cls-4" x1="163.46" y1="184.56" x2="19.18" y2="184.56"/><line class="cls-4" x1="163.46" y1="190.14" x2="19.18" y2="190.14"/><line class="cls-4" x1="163.46" y1="195.72" x2="19.18" y2="195.72"/><line class="cls-4" x1="163.46" y1="201.3" x2="19.18" y2="201.3"/><line class="cls-4" x1="163.46" y1="206.87" x2="19.18" y2="206.87"/><line class="cls-4" x1="163.46" y1="212.45" x2="19.18" y2="212.45"/><line class="cls-4" x1="163.46" y1="218.03" x2="19.18" y2="218.03"/><line class="cls-4" x1="163.46" y1="223.6" x2="19.18" y2="223.6"/><g class="cls-5"><path class="cls-6" d="M90.34,229.25c0,2.68-2.16,6.36-4.85,6.36s-4.87-3.68-4.87-6.36a4.86,4.86,0,1,1,9.72,0Z"/><path class="cls-6" d="M85.49,235.62s-.13,3.37-2.28,3.27"/></g></g></g></svg>