<svg xmlns="http://www.w3.org/2000/svg" viewBox="0 0 288 100"><defs><style>.cls-1{fill:#fff;opacity:0;}.cls-2{fill:none;stroke:#4d4d4d;stroke-miterlimit:10;}.cls-3{fill:#ffa73f;}</style></defs><title>アセット 127</title><g id="レイヤー_2" data-name="レイヤー 2"><g id="レイヤー_1-2" data-name="レイヤー 1"><rect class="cls-1" width="288" height="100"/><rect class="cls-1" x="15.25" y="5" width="67.5" height="90"/><path class="cls-2" d="M44.14,78.87s3,6.78-.81,16.13"/><path class="cls-3" d="M81.12,39.45C79.88,57.19,64.19,79.78,46.45,78.54S15.64,52.7,16.88,35a32.2,32.2,0,1,1,64.24,4.5Z"/><polygon class="cls-3" points="45.53 74.11 38.4 81.75 50.93 83.07 45.53 74.11"/><path d="M99.63,57.38a1.27,1.27,0,0,1-1.26-1.2,1.18,1.18,0,0,1,.26-.72,31.15,31.15,0,0,0,5.63-13.22,1,1,0,0,1,1-.76,1,1,0,0,1,1.15.94.68.68,0,0,1,0,.2,38.22,38.22,0,0,1-5.83,14.22A1.12,1.12,0,0,1,99.63,57.38Zm16.77.14a1.13,1.13,0,0,1-1.1-.9A71.18,71.18,0,0,0,109.84,43a.86.86,0,0,1-.12-.48,1.11,1.11,0,0,1,1.16-1,.93.93,0,0,1,.86.52,89.84,89.84,0,0,1,5.84,13.94,1.49,1.49,0,0,1,.06.4A1.22,1.22,0,0,1,116.4,57.52Zm-1.3-13.24a.7.7,0,0,1-.58-.34,12.65,12.65,0,0,0-1.46-1.8.66.66,0,0,1-.22-.48.73.73,0,0,1,.74-.7.82.82,0,0,1,.54.24c.66.64,1.76,1.84,1.76,2.32A.79.79,0,0,1,115.1,44.28Zm2-1.12a.67.67,0,0,1-.56-.3,12.49,12.49,0,0,0-1.46-1.64.66.66,0,0,1-.22-.48.69.69,0,0,1,.7-.64.71.71,0,0,1,.52.22c.2.2,1.72,1.6,1.72,2.16A.72.72,0,0,1,117.08,43.16Z"/><path d="M123.07,41.48a1.11,1.11,0,0,1,2.19,0v6.76c0,4-1.13,7.42-4.33,9.44a1.29,1.29,0,0,1-.66.22,1.27,1.27,0,0,1-1.18-1.26,1,1,0,0,1,.48-.84c2.5-1.66,3.5-4.26,3.5-7.56Zm4.93-.06a1.1,1.1,0,0,1,2.18,0V54.34c0,.28.12.42.3.42a.58.58,0,0,0,.18,0,10,10,0,0,0,5.1-5.62,1.09,1.09,0,0,1,1-.78,1.18,1.18,0,0,1,1.12,1.2c0,.56-1.64,5.22-6.82,7.62a2.85,2.85,0,0,1-1.16.26,1.91,1.91,0,0,1-1.9-2.16Z"/><path d="M141.43,50.12a1,1,0,0,1-.92-1.1,1,1,0,0,1,.92-1.1H155.2a1,1,0,0,1,.9,1.1c0,.56-.3,1.1-.9,1.1Z"/><path d="M166.26,46.26a35,35,0,0,0-5.21-2.9,1,1,0,0,1-.62-.88,1.19,1.19,0,0,1,1.14-1.18,24.53,24.53,0,0,1,5.85,2.94,1.1,1.1,0,0,1,.53.92,1.32,1.32,0,0,1-1.19,1.26A.82.82,0,0,1,166.26,46.26Zm-4.37,11.56a1,1,0,0,1-.24,0,1.21,1.21,0,0,1-1.2-1.24,1,1,0,0,1,.86-1C169,54.26,173,51,174.9,45.16a1,1,0,0,1,1-.66,1.09,1.09,0,0,1,1.16,1,2,2,0,0,1,0,.32C175.4,51.82,170.3,56.6,161.89,57.82Z"/><path d="M190.44,53.5l0-2.5c-3.06,1.38-4.19,2.66-4.19,3.68S187.45,56,191.08,56a28.07,28.07,0,0,0,4.08-.3l.16,0a.87.87,0,0,1,.84.94,1,1,0,0,1-.94,1.08,30.27,30.27,0,0,1-4.16.24c-5.14,0-6.87-1-6.87-3.1,0-2.38,2.37-4.22,6.21-5.84a1.56,1.56,0,0,0-1.6-1.42c-2.51,0-4.91,2.14-6.91,4.94a1.08,1.08,0,0,1-.88.5,1.16,1.16,0,0,1-1.14-1.1,1.06,1.06,0,0,1,.28-.66,25,25,0,0,0,4.62-7.12c-1.17,0-2.32,0-3.44,0a.9.9,0,0,1-.84-1,.8.8,0,0,1,.78-.88h.06c1,0,2,0,3,0h1.12c.19-.54.35-1.08.51-1.64a.84.84,0,0,1,.87-.6c.55,0,1.13.32,1.13.88a6.21,6.21,0,0,1-.37,1.3c2.24-.1,4.51-.24,6.71-.46h.1a.93.93,0,0,1,.9,1,.83.83,0,0,1-.78.9c-1.6.14-4.62.36-7.62.42A22.43,22.43,0,0,1,185.47,47a5.91,5.91,0,0,1,3.35-1.18,3.23,3.23,0,0,1,3.5,2.5c1-.38,2.14-.76,3.34-1.12a1.13,1.13,0,0,1,.36-.06,1,1,0,0,1,.94,1,.85.85,0,0,1-.62.86q-2.19.6-3.84,1.2V53.5a.94.94,0,0,1-1,.86c-.52,0-1-.28-1-.84Z"/><path d="M206.79,49.8H204.1c-.1,3.76-1,5.94-3,7.86a.91.91,0,0,1-.64.26,1.14,1.14,0,0,1-1.12-1.08,1,1,0,0,1,.32-.72c1.84-1.62,2.48-3,2.56-6.32h-2a.8.8,0,0,1-.82-.86.88.88,0,0,1,.82-.94h2.06V46.42a10.64,10.64,0,0,1-1.66.56,1.13,1.13,0,0,1-1-1.12.63.63,0,0,1,.5-.64,12.34,12.34,0,0,0,4.78-2.28.63.63,0,0,1,.4-.14,1,1,0,0,1,.92,1c0,.48-.51.88-2.08,1.78V48h2.68V43.72c0-.56.5-.82,1-.82a.87.87,0,0,1,1,.82V48h2a1.75,1.75,0,0,1,1.78,1.94c0,3.22.44,4.52,1.24,5.62.18.24.36.38.52.38.36,0,.72-.66,1.1-2.06a13.24,13.24,0,0,0-1.88-1,.7.7,0,0,1-.46-.64.88.88,0,0,1,.5-.78,1,1,0,0,1-.46-.8.72.72,0,0,1,.42-.66,9.24,9.24,0,0,0,1.38-.94,1.45,1.45,0,0,1-.5.08c-1.68,0-3.72-2.54-3.72-6.32,0-.16,0-.3-.22-.3h-9.55a.8.8,0,0,1-.82-.86.88.88,0,0,1,.82-.94h10a1.46,1.46,0,0,1,1.64,1.64c0,4,1.64,4.82,1.88,4.82s.6-.5.94-1.64c-.52-.28-1.24-.64-1.88-.92a.65.65,0,0,1-.34-.62,1,1,0,0,1,.44-.86,1.15,1.15,0,0,1-.52-.9.61.61,0,0,1,.4-.58,7.56,7.56,0,0,0,1.74-1,.56.56,0,0,1,.38-.14,1.06,1.06,0,0,1,.88,1,.75.75,0,0,1-.28.6,6.2,6.2,0,0,1-1.84,1.08c1.46.62,2,.84,2,1.38a.9.9,0,0,1-.1.38A1.17,1.17,0,0,1,217.2,46a5.2,5.2,0,0,1-1.56,2.62.94.94,0,0,1,.82.9.8.8,0,0,1-.28.6,9.51,9.51,0,0,1-1.92,1.3,16.54,16.54,0,0,1,2.1,1,.73.73,0,0,1,.42.64.71.71,0,0,1-.06.28,1.09,1.09,0,0,1,.62.94c0,.28-1.18,3.84-3,3.84-1.16,0-3.7-1.84-3.7-7.88,0-.32-.1-.42-.32-.42h-1.51v7.52a.87.87,0,0,1-1,.82c-.51,0-1-.26-1-.82Z"/><path d="M222.35,50.28A17.92,17.92,0,0,0,223,56a1.59,1.59,0,0,1,.08.46,1.15,1.15,0,0,1-2.29.16,26.12,26.12,0,0,1-.54-5.9,37.08,37.08,0,0,1,1.1-9.22,1.08,1.08,0,0,1,1.06-.76,1,1,0,0,1,1,.84,1.38,1.38,0,0,1,0,.26,26.94,26.94,0,0,0-1.08,7.46Zm13.77-6.42a1,1,0,0,1,.06,1.86c-.88.1-1.92.18-3.08.22,0,.14.12,4.22.12,6.2a25.77,25.77,0,0,1,3.32,1.9,1.07,1.07,0,0,1,.5.92,1.08,1.08,0,0,1-1,1.12,1.11,1.11,0,0,1-.64-.24,24.7,24.7,0,0,0-2.2-1.46c-.24,2.9-2.08,3.64-4.45,3.64-2.67,0-4.58-1.56-4.58-3.82,0-2.1,1.81-3.36,4.39-3.36a8.75,8.75,0,0,1,2.64.5c0-1.58-.06-3.5-.1-5.34h-1.34c-1.46,0-3,0-4.51-.08a1,1,0,0,1-1-1,.86.86,0,0,1,.9-.9h.11c1.6.12,3.26.16,4.86.16h.88c0-1.12-.06-2.14-.08-3v0c0-.54.52-.82,1-.82a.89.89,0,0,1,1,.84c0,.78,0,1.78.06,2.92,1.14-.06,2.16-.14,3-.22Zm-4.88,9.5a7.16,7.16,0,0,0-2.66-.64c-1.5,0-2.29.6-2.29,1.54s.9,1.82,2.48,1.82,2.47-.52,2.47-2.42Zm4.26-9.94a.69.69,0,0,1-.6-.38,13.18,13.18,0,0,0-1-1.56.73.73,0,0,1-.16-.4.7.7,0,0,1,.7-.66.69.69,0,0,1,.54.28,6.82,6.82,0,0,1,1.3,2A.74.74,0,0,1,235.5,43.42Zm2-.88a.67.67,0,0,1-.56-.32,10.87,10.87,0,0,0-1.06-1.46.65.65,0,0,1-.18-.42.66.66,0,0,1,.68-.6c.3,0,.62.16,1.7,1.8a.65.65,0,0,1,.12.36A.7.7,0,0,1,237.46,42.54Z"/><path d="M256.74,44.24c-1.56,0-3.14-.06-4.74-.08,0,1.46,0,2.92,0,4a5.6,5.6,0,0,1,.36,2.08c0,3.86-1.38,6.86-6.82,7.72l-.21,0a1.14,1.14,0,0,1-1.14-1.14.91.91,0,0,1,.82-.9c3.3-.58,4.67-1.78,5.23-3.42a5.34,5.34,0,0,1-3.12.92c-3.29,0-5-1.62-5-4s1.88-4.1,5.07-4.1a5.38,5.38,0,0,1,2.82.68c0-.6,0-1.28-.06-1.9h-1.26c-2.92,0-5.87.06-8.87.16h0a.87.87,0,0,1-.8-1c0-.46.24-.94.74-.94q5.16-.06,10.13-.06c0-.4,0-.8-.08-1.18v-.08c0-.52.5-.8,1-.8a1,1,0,0,1,1,.84c0,.38,0,.8,0,1.2l4.82,0a.85.85,0,0,1,.82.94.87.87,0,0,1-.82,1Zm-9.47,3c-2,0-3.08.92-3.08,2.32,0,1.08,1,2.08,2.95,2.08s3.22-.7,3.22-2.42C250.36,48.12,249.22,47.22,247.27,47.22Z"/></g></g></svg>