<svg xmlns="http://www.w3.org/2000/svg" viewBox="0 0 288 100"><defs><style>.cls-1{fill:#fff;opacity:0;}.cls-2{fill:none;stroke:#4d4d4d;stroke-miterlimit:10;}.cls-3{fill:#ffa73f;}</style></defs><title>アセット 125</title><g id="レイヤー_2" data-name="レイヤー 2"><g id="レイヤー_1-2" data-name="レイヤー 1"><rect class="cls-1" width="288" height="100"/><rect class="cls-1" x="15.25" y="5" width="67.5" height="90"/><path class="cls-2" d="M44.14,78.87s3,6.78-.81,16.13"/><path class="cls-3" d="M81.12,39.45C79.88,57.19,64.19,79.78,46.45,78.54S15.64,52.7,16.88,35a32.2,32.2,0,1,1,64.24,4.5Z"/><polygon class="cls-3" points="45.53 74.11 38.4 81.75 50.93 83.07 45.53 74.11"/><path d="M101,48.62c-.2.44-.46.6-.7.6a1.19,1.19,0,0,1-1-1.18.75.75,0,0,1,.16-.5,16.23,16.23,0,0,0,2.84-6.8.79.79,0,0,1,.86-.6c.48,0,1,.28,1,.76a.55.55,0,0,1,0,.18,27.67,27.67,0,0,1-1.36,4.36V57.3a.82.82,0,0,1-.9.82.83.83,0,0,1-.9-.82Zm10.79,2A18.69,18.69,0,0,0,117,55.48a.71.71,0,0,1,.34.62,1.16,1.16,0,0,1-1,1.12c-.7,0-3.6-2.7-5.16-5.16V57.3a.84.84,0,0,1-.92.8.81.81,0,0,1-.88-.8V52.06c-1.71,2.8-4.37,5.1-5,5.1a1.18,1.18,0,0,1-1-1.12.75.75,0,0,1,.34-.64,17.19,17.19,0,0,0,5.08-4.8h-4.4a.85.85,0,0,1-.82-.9.84.84,0,0,1,.82-.9h5V47.22H106a1.28,1.28,0,0,1-1.45-1.44V42.14A1.28,1.28,0,0,1,106,40.7h8.78a1.27,1.27,0,0,1,1.44,1.44v3.64a1.27,1.27,0,0,1-1.44,1.44h-3.66V48.8h5.3a.82.82,0,0,1,.82.9.83.83,0,0,1-.82.9Zm2.6-7.8a.27.27,0,0,0-.3-.3h-7.46c-.21,0-.31.1-.31.3v2.32c0,.2.1.3.31.3h7.46a.27.27,0,0,0,.3-.3Z"/><path d="M126.92,44.34a18.3,18.3,0,0,1-3.37,4.22v8.76c0,.56-.5.82-1,.82s-1-.26-1-.82V50.14c-.74.5-1,.54-1.14.54a1.23,1.23,0,0,1-1.12-1.22.7.7,0,0,1,.34-.64,15.42,15.42,0,0,0,5-4.48h-4.07a.86.86,0,0,1-.82-.94.85.85,0,0,1,.82-.94h5.13a19.09,19.09,0,0,0,.77-1.8.85.85,0,0,1,.84-.48c.55,0,1.13.32,1.13.8a6,6,0,0,1-.55,1.48h8.61a.84.84,0,0,1,.82.94.85.85,0,0,1-.82.94Zm7.22,10.76c0,2.14-1.56,3-4,3h-.34a9.32,9.32,0,0,1-3.56-.84.87.87,0,0,1-.55-.8,1,1,0,0,1,1-1,1.29,1.29,0,0,1,.37.06,9.94,9.94,0,0,0,2.71.66H130c1.3,0,2-.48,2-1.28V54.8a3.48,3.48,0,0,0-.86-2.18H125a.84.84,0,0,1-.82-.9.83.83,0,0,1,.82-.9h4.49a2.56,2.56,0,0,1-.28-.3.53.53,0,0,1-.14-.38,1.1,1.1,0,0,1,.74-.94c1.06-.4,2.2-1,3.5-1.6H127a.87.87,0,1,1,0-1.74h7.68c1,0,1.48.56,1.48,1.16a1.52,1.52,0,0,1-.74,1.24,25.09,25.09,0,0,1-3.64,1.94c-.24.1-.32.2-.32.3a.15.15,0,0,0,.08.14l.16.18h4.84a.82.82,0,0,1,.82.9.83.83,0,0,1-.82.9H133.3a4.16,4.16,0,0,1,.84,2.4Z"/><path d="M144.71,51.3c0,3.3,1.22,4.42,4.37,4.42,2.9,0,4.86-1.86,5.5-5.14a1.07,1.07,0,0,1,1.06-.94,1.11,1.11,0,0,1,1.12,1.16c0,.28-.8,7-7.68,7-4.13,0-6.48-1.66-6.48-6.22,0-.26,0-.52,0-.8.18-3.76.24-6,.3-9.68a1.12,1.12,0,0,1,2.22.06v.06c-.11,3.48-.29,5.9-.42,9.56Z"/><path d="M168.43,42.68a.94.94,0,0,1,0,1.88c-1.17.1-2.33.18-3.44.24a57.49,57.49,0,0,1-3.37,12.4,1.06,1.06,0,0,1-1,.72,1.15,1.15,0,0,1-1.16-1.08,1,1,0,0,1,.1-.48,43.4,43.4,0,0,0,3.32-11.46q-1.44.06-2.7.06a1,1,0,0,1,0-1.92c.9,0,1.92,0,3-.06.09-.68.16-1.36.24-2.06a.94.94,0,0,1,1-.72,1,1,0,0,1,1.09.92s0,.1,0,.16c-.07.54-.15,1.08-.21,1.6,1,0,2.06-.12,3-.2Zm7.63,12.58a.93.93,0,0,1,.92,1,1.11,1.11,0,0,1-1.06,1.16c-.94,0-1.82.06-2.62.06-5.48,0-7.67-1.12-7.67-4.64v-.34a1.12,1.12,0,0,1,1.11-1.16.9.9,0,0,1,.95.94c0,2.24.83,3.06,5.13,3.06.9,0,1.94,0,3.16-.1Zm-.14-7.4c-1.34-.1-2.82-.18-4.26-.18-.92,0-1.84,0-2.7.1h-.08a1,1,0,0,1-.93-1.06.89.89,0,0,1,.82-.94c1-.08,2-.12,3-.12,1.48,0,3,.08,4.28.2a.9.9,0,0,1,.84,1,1,1,0,0,1-.88,1Z"/><path d="M179.63,57.38a1.27,1.27,0,0,1-1.26-1.2,1.18,1.18,0,0,1,.26-.72,31.15,31.15,0,0,0,5.63-13.22,1,1,0,0,1,1-.76,1,1,0,0,1,1.15.94.68.68,0,0,1,0,.2,38.22,38.22,0,0,1-5.83,14.22A1.12,1.12,0,0,1,179.63,57.38Zm16.77.14a1.13,1.13,0,0,1-1.1-.9A71.18,71.18,0,0,0,189.84,43a.86.86,0,0,1-.12-.48,1.11,1.11,0,0,1,1.16-1,.93.93,0,0,1,.86.52,89.84,89.84,0,0,1,5.84,13.94,1.49,1.49,0,0,1,.06.4A1.22,1.22,0,0,1,196.4,57.52Zm-1.3-13.24a.7.7,0,0,1-.58-.34,12.65,12.65,0,0,0-1.46-1.8.66.66,0,0,1-.22-.48.73.73,0,0,1,.74-.7.82.82,0,0,1,.54.24c.66.64,1.76,1.84,1.76,2.32A.79.79,0,0,1,195.1,44.28Zm2-1.12a.67.67,0,0,1-.56-.3,12.49,12.49,0,0,0-1.46-1.64.66.66,0,0,1-.22-.48.69.69,0,0,1,.7-.64.71.71,0,0,1,.52.22c.2.2,1.72,1.6,1.72,2.16A.72.72,0,0,1,197.08,43.16Z"/><path d="M203.07,41.48a1.11,1.11,0,0,1,2.19,0v6.76c0,4-1.13,7.42-4.33,9.44a1.29,1.29,0,0,1-.66.22,1.27,1.27,0,0,1-1.18-1.26,1,1,0,0,1,.48-.84c2.5-1.66,3.5-4.26,3.5-7.56Zm4.93-.06a1.1,1.1,0,0,1,2.18,0V54.34c0,.28.12.42.3.42a.58.58,0,0,0,.18,0,10,10,0,0,0,5.1-5.62,1.09,1.09,0,0,1,1-.78,1.18,1.18,0,0,1,1.12,1.2c0,.56-1.64,5.22-6.82,7.62a2.85,2.85,0,0,1-1.16.26,1.91,1.91,0,0,1-1.9-2.16Z"/><path d="M221.43,50.12a1,1,0,0,1-.92-1.1,1,1,0,0,1,.92-1.1H235.2a1,1,0,0,1,.9,1.1c0,.56-.3,1.1-.9,1.1Z"/><path d="M246.26,46.26a35,35,0,0,0-5.21-2.9,1,1,0,0,1-.62-.88,1.19,1.19,0,0,1,1.14-1.18,24.53,24.53,0,0,1,5.85,2.94,1.1,1.1,0,0,1,.53.92,1.32,1.32,0,0,1-1.19,1.26A.82.82,0,0,1,246.26,46.26Zm-4.37,11.56a1,1,0,0,1-.24,0,1.21,1.21,0,0,1-1.2-1.24,1,1,0,0,1,.86-1C249,54.26,253,51,254.9,45.16a1,1,0,0,1,1-.66,1.09,1.09,0,0,1,1.16,1,2,2,0,0,1,0,.32C255.4,51.82,250.3,56.6,241.89,57.82Z"/></g></g></svg>