<svg xmlns="http://www.w3.org/2000/svg" viewBox="0 0 288 100"><defs><style>.cls-1{fill:#fff;opacity:0;}.cls-2{fill:none;stroke:#4d4d4d;stroke-miterlimit:10;}.cls-3{fill:#7095ff;}</style></defs><title>アセット 121</title><g id="レイヤー_2" data-name="レイヤー 2"><g id="レイヤー_1-2" data-name="レイヤー 1"><rect class="cls-1" width="288" height="100"/><path class="cls-2" d="M45.62,77s37.66,25.66-29.34,15.77"/><path class="cls-3" d="M81.65,38.56c-1.21,17.28-16.5,39.29-33.78,38.08s-30-25.18-28.81-42.46a31.37,31.37,0,0,1,62.59,4.38Z"/><polygon class="cls-3" points="46.98 72.32 40.02 79.77 52.23 81.05 46.98 72.32"/><path d="M100.35,49c-.15.33-.34.46-.52.46a.9.9,0,0,1-.74-.89.55.55,0,0,1,.12-.37,12.07,12.07,0,0,0,2.13-5.1.6.6,0,0,1,.65-.45c.36,0,.75.21.75.57a.3.3,0,0,1,0,.13,20.09,20.09,0,0,1-1,3.27v8.89a.61.61,0,0,1-.67.62.62.62,0,0,1-.68-.62Zm8.09,1.49a14,14,0,0,0,3.87,3.66.54.54,0,0,1,.25.47.87.87,0,0,1-.78.84c-.52,0-2.7-2-3.87-3.88v3.93a.63.63,0,0,1-.69.61.61.61,0,0,1-.66-.61V51.54c-1.27,2.11-3.27,3.83-3.75,3.83a.89.89,0,0,1-.78-.84.57.57,0,0,1,.26-.48,13,13,0,0,0,3.81-3.6h-3.3a.68.68,0,0,1,0-1.35h3.76V47.92h-2.49A1,1,0,0,1,103,46.84V44.11A1,1,0,0,1,104.07,43h6.59a1,1,0,0,1,1.08,1.08v2.73a1,1,0,0,1-1.08,1.08h-2.75V49.1h4a.68.68,0,0,1,0,1.35Zm2-5.85c0-.15-.08-.22-.23-.22h-5.59c-.15,0-.23.07-.23.22v1.74a.21.21,0,0,0,.23.23h5.59a.21.21,0,0,0,.23-.23Z"/><path d="M119.76,45.76a13.44,13.44,0,0,1-2.52,3.16v6.57c0,.42-.37.62-.75.62a.67.67,0,0,1-.75-.62V50.11c-.55.37-.73.4-.85.4a.92.92,0,0,1-.84-.91.51.51,0,0,1,.25-.48A11.41,11.41,0,0,0,118,45.76h-3a.65.65,0,0,1-.62-.71.64.64,0,0,1,.62-.7h3.84A13,13,0,0,0,119.4,43a.62.62,0,0,1,.63-.36c.41,0,.84.24.84.6a4.58,4.58,0,0,1-.4,1.11h6.45a.62.62,0,0,1,.61.7.64.64,0,0,1-.61.71Zm5.42,8.07c0,1.6-1.17,2.25-3,2.25h-.26a7.33,7.33,0,0,1-2.67-.63.67.67,0,0,1-.4-.6.72.72,0,0,1,.72-.73,1,1,0,0,1,.28.05,7.64,7.64,0,0,0,2,.5H122c1,0,1.49-.37,1.52-1V53.6a2.64,2.64,0,0,0-.65-1.64h-4.6a.67.67,0,0,1,0-1.34h3.36l-.21-.23a.37.37,0,0,1-.11-.28.84.84,0,0,1,.56-.71c.79-.3,1.65-.72,2.62-1.2h-4.72a.65.65,0,1,1,0-1.3h5.76c.75,0,1.11.42,1.11.87a1.15,1.15,0,0,1-.56.93,18.76,18.76,0,0,1-2.73,1.45c-.18.08-.24.15-.24.23a.12.12,0,0,0,.06.1l.12.14H127A.67.67,0,0,1,127,52h-2.41a3.19,3.19,0,0,1,.63,1.81Z"/><path d="M133.11,51c0,2.47.92,3.31,3.27,3.31,2.18,0,3.65-1.39,4.13-3.85a.8.8,0,0,1,.79-.71.83.83,0,0,1,.84.87c0,.21-.6,5.28-5.76,5.28-3.09,0-4.86-1.25-4.86-4.67,0-.19,0-.38,0-.59.13-2.83.18-4.5.22-7.26a.85.85,0,0,1,1.67,0v.05c-.09,2.61-.23,4.42-.32,7.17Z"/><path d="M150.9,44.51a.68.68,0,0,1,.66.71.67.67,0,0,1-.64.7c-.87.08-1.74.14-2.58.18a43,43,0,0,1-2.52,9.3.79.79,0,0,1-.75.54.85.85,0,0,1-.87-.81.77.77,0,0,1,.07-.36,32.09,32.09,0,0,0,2.49-8.59c-.72,0-1.39,0-2,0a.72.72,0,0,1,0-1.44c.68,0,1.44,0,2.24,0,.07-.51.12-1,.18-1.55a.71.71,0,0,1,.76-.54.73.73,0,0,1,.81.69s0,.08,0,.12c0,.41-.11.81-.15,1.2.76,0,1.54-.09,2.26-.15ZM156.62,54a.7.7,0,0,1,.69.76.83.83,0,0,1-.8.87c-.7,0-1.36,0-2,0-4.11,0-5.75-.83-5.75-3.47v-.26a.84.84,0,0,1,.83-.87.68.68,0,0,1,.72.71c0,1.68.61,2.29,3.84,2.29.67,0,1.45,0,2.37-.07Zm-.11-5.55c-1-.08-2.11-.14-3.19-.14-.69,0-1.38,0-2,.08h-.06a.74.74,0,0,1-.69-.8.66.66,0,0,1,.62-.7c.72-.06,1.47-.09,2.22-.09,1.11,0,2.22.06,3.21.15a.68.68,0,0,1,.63.72.72.72,0,0,1-.66.78Z"/><path d="M159.3,55.54a1,1,0,0,1-.94-.91.91.91,0,0,1,.19-.53,23.35,23.35,0,0,0,4.22-9.92.73.73,0,0,1,.76-.57.79.79,0,0,1,.86.71.41.41,0,0,1,0,.15A28.58,28.58,0,0,1,160,55.13.84.84,0,0,1,159.3,55.54Zm12.57.1a.84.84,0,0,1-.82-.68A53.71,53.71,0,0,0,167,44.72a.69.69,0,0,1-.09-.36.84.84,0,0,1,.87-.75.71.71,0,0,1,.65.39,68.44,68.44,0,0,1,4.38,10.46,1.08,1.08,0,0,1,0,.3A.91.91,0,0,1,171.87,55.64Zm-1-9.93a.53.53,0,0,1-.44-.25,9.14,9.14,0,0,0-1.09-1.35.5.5,0,0,1-.17-.36.55.55,0,0,1,.56-.53.6.6,0,0,1,.4.18c.5.48,1.32,1.38,1.32,1.74A.58.58,0,0,1,170.9,45.71Zm1.48-.84a.51.51,0,0,1-.42-.22,9.41,9.41,0,0,0-1.09-1.23.5.5,0,0,1-.17-.36.51.51,0,0,1,.53-.48.54.54,0,0,1,.39.16c.15.15,1.29,1.2,1.29,1.62A.54.54,0,0,1,172.38,44.87Z"/><path d="M176.88,43.61a.83.83,0,0,1,1.64,0v5.07c0,3-.84,5.57-3.24,7.08a1,1,0,0,1-.5.17,1,1,0,0,1-.88-1,.72.72,0,0,1,.36-.63c1.87-1.24,2.62-3.19,2.62-5.67Zm3.69,0a.83.83,0,0,1,1.64,0v9.69c0,.2.09.31.22.31a.7.7,0,0,0,.14,0,7.44,7.44,0,0,0,3.82-4.21.82.82,0,0,1,.75-.59.89.89,0,0,1,.84.9,9.19,9.19,0,0,1-5.11,5.72,2.21,2.21,0,0,1-.87.19,1.43,1.43,0,0,1-1.43-1.62Z"/><path d="M190.65,50.09a.84.84,0,0,1,0-1.65H201a.75.75,0,0,1,.68.83.73.73,0,0,1-.68.82Z"/><path d="M209.27,47.2a26.17,26.17,0,0,0-3.9-2.18.72.72,0,0,1-.47-.66.89.89,0,0,1,.86-.88,18.36,18.36,0,0,1,4.38,2.2.85.85,0,0,1,.4.69,1,1,0,0,1-.9,1A.6.6,0,0,1,209.27,47.2ZM206,55.87h-.18a.91.91,0,0,1-.9-.93.75.75,0,0,1,.64-.76c5.79-1,8.79-3.41,10.19-7.82a.71.71,0,0,1,.72-.49.81.81,0,0,1,.87.78c0,.07,0,.15,0,.24C216.12,51.37,212.3,55,206,55.87Z"/></g></g></svg>