<svg xmlns="http://www.w3.org/2000/svg" viewBox="0 0 288 100"><defs><style>.cls-1{fill:#fff;opacity:0;}.cls-2{fill:none;stroke:#4d4d4d;stroke-miterlimit:10;}.cls-3{fill:#ffa73f;}</style></defs><title>アセット 124</title><g id="レイヤー_2" data-name="レイヤー 2"><g id="レイヤー_1-2" data-name="レイヤー 1"><rect class="cls-1" width="288" height="100"/><rect class="cls-1" x="15.25" y="5" width="67.5" height="90"/><path class="cls-2" d="M44.14,78.87s3,6.78-.81,16.13"/><path class="cls-3" d="M81.12,39.45C79.88,57.19,64.19,79.78,46.45,78.54S15.64,52.7,16.88,35a32.2,32.2,0,1,1,64.24,4.5Z"/><polygon class="cls-3" points="45.53 74.11 38.4 81.75 50.93 83.07 45.53 74.11"/><path d="M100.07,45.2a.85.85,0,0,1,0-1.7h5.86a.85.85,0,0,1,0,1.7Zm.86,12.56a1,1,0,0,1-1.16-1.16V53.06a1,1,0,0,1,1.16-1.16h3.94A1,1,0,0,1,106,53.06V56.6a1,1,0,0,1-1.16,1.16Zm-.26-15.36a.85.85,0,0,1,0-1.7h4.59a.85.85,0,0,1,0,1.7Zm0,8.4a.85.85,0,0,1,0-1.7h4.59a.85.85,0,0,1,0,1.7Zm0-2.8a.85.85,0,0,1,0-1.7h4.57a.85.85,0,0,1,0,1.7Zm3.54,5.82a.21.21,0,0,0-.23-.24h-2.17a.21.21,0,0,0-.24.24v2a.21.21,0,0,0,.24.24H104a.21.21,0,0,0,.23-.24Zm10.27-6.28c-1,0-1.46-.58-1.46-1.7v-3.2c0-.12,0-.14-.2-.14h-2.72c-.12,0-.16,0-.16.16-.08,2.34-.53,3.9-2.24,5a.88.88,0,0,1-.48.14,1.09,1.09,0,0,1-1-1,.87.87,0,0,1,.4-.7c1.31-.88,1.53-1.64,1.53-4.2a1.07,1.07,0,0,1,1.2-1.16h4.3a1.06,1.06,0,0,1,1.2,1.2v3.44c0,.28.06.4.28.4s.42-.28.54-2.14a.74.74,0,0,1,.76-.76.9.9,0,0,1,.9.92v.1c-.28,2.64-.48,3.68-1.86,3.68Zm0,2.68c0-.08,0-.14-.16-.14h-7.06a.83.83,0,0,1-.82-.9.82.82,0,0,1,.82-.9h7.64c1,0,1.56.54,1.56,1.4a10.32,10.32,0,0,1-2.92,5.52,19.93,19.93,0,0,0,3.08,1,.88.88,0,0,1,.72.88,1,1,0,0,1-1,1,14,14,0,0,1-4.42-1.7,15.68,15.68,0,0,1-4.63,1.7.3.3,0,0,1-.13,0c-.5,0-.92-.62-.92-1.16a.67.67,0,0,1,.58-.7,16.31,16.31,0,0,0,3.44-1,9,9,0,0,1-2.78-4,1,1,0,0,1,1-.86.69.69,0,0,1,.62.36,9.56,9.56,0,0,0,2.84,3.54,7.28,7.28,0,0,0,2.54-4Z"/><path d="M136.5,55.54a.79.79,0,0,1,.82.88,1.09,1.09,0,0,1-.92,1.16c-1.4,0-3.18,0-5.1,0-3.27,0-5.83-.42-8-2.94-.67,1.48-1.94,3.46-2.68,3.46a1.39,1.39,0,0,1-1.22-1.28.87.87,0,0,1,.24-.58,11.18,11.18,0,0,0,2.91-6.4.83.83,0,0,1,.91-.74,1,1,0,0,1,1.09.88s0,.1,0,.14a20.7,20.7,0,0,1-.55,2.62,6.87,6.87,0,0,0,3.29,2.4V47.64h-5.35a.93.93,0,0,1,0-1.84h12.85a.93.93,0,0,1,0,1.84h-5.42v2.58h4.62a.94.94,0,0,1,0,1.86h-4.62v3.54a16,16,0,0,0,2,.1c1.6,0,2.52,0,5.12-.18Zm-1.68-11.72c0-.2-.22-.3-.42-.3H122.1c-.21,0-.31.1-.31.3v1.44c0,.44-.5.68-1,.68s-1-.24-1-.68V43.1a1.29,1.29,0,0,1,1.44-1.46h6v-.92c0-.42.57-.62,1.13-.62s1.1.2,1.1.62v.92h6a1.29,1.29,0,0,1,1.44,1.46v2.14c0,.44-.5.68-1,.68s-1-.24-1-.68Z"/></g></g></svg>