<svg xmlns="http://www.w3.org/2000/svg" viewBox="0 0 288 100"><defs><style>.cls-1{fill:#fff;opacity:0;}.cls-2{fill:none;stroke:#4d4d4d;stroke-miterlimit:10;}.cls-3{fill:#7095ff;}</style></defs><title>アセット 123</title><g id="レイヤー_2" data-name="レイヤー 2"><g id="レイヤー_1-2" data-name="レイヤー 1"><rect class="cls-1" width="288" height="100"/><path class="cls-2" d="M45.62,77s37.66,25.66-29.34,15.77"/><path class="cls-3" d="M81.65,38.56c-1.21,17.28-16.5,39.29-33.78,38.08s-30-25.18-28.81-42.46a31.37,31.37,0,0,1,62.59,4.38Z"/><polygon class="cls-3" points="46.98 72.32 40.02 79.77 52.23 81.05 46.98 72.32"/><path d="M99.3,55.54a1,1,0,0,1-.94-.91.91.91,0,0,1,.19-.53,23.35,23.35,0,0,0,4.22-9.92.73.73,0,0,1,.76-.57.79.79,0,0,1,.86.71.41.41,0,0,1,0,.15A28.58,28.58,0,0,1,100,55.13.84.84,0,0,1,99.3,55.54Zm12.57.1a.84.84,0,0,1-.82-.68A53.71,53.71,0,0,0,107,44.72a.69.69,0,0,1-.09-.36.84.84,0,0,1,.87-.75.71.71,0,0,1,.65.39,68.44,68.44,0,0,1,4.38,10.46,1.08,1.08,0,0,1,0,.3A.91.91,0,0,1,111.87,55.64Zm-1-9.93a.53.53,0,0,1-.44-.25,9.14,9.14,0,0,0-1.09-1.35.5.5,0,0,1-.17-.36.55.55,0,0,1,.56-.53.6.6,0,0,1,.4.18c.5.48,1.32,1.38,1.32,1.74A.58.58,0,0,1,110.9,45.71Zm1.48-.84a.51.51,0,0,1-.42-.22,9.41,9.41,0,0,0-1.09-1.23.5.5,0,0,1-.17-.36.51.51,0,0,1,.53-.48.54.54,0,0,1,.39.16c.15.15,1.29,1.2,1.29,1.62A.54.54,0,0,1,112.38,44.87Z"/><path d="M116.88,43.61a.83.83,0,0,1,1.64,0v5.07c0,3-.84,5.57-3.24,7.08a1,1,0,0,1-.5.17,1,1,0,0,1-.88-1,.72.72,0,0,1,.36-.63c1.87-1.24,2.62-3.19,2.62-5.67Zm3.69,0a.83.83,0,0,1,1.64,0v9.69c0,.2.09.31.22.31a.7.7,0,0,0,.14,0,7.44,7.44,0,0,0,3.82-4.21.82.82,0,0,1,.75-.59.89.89,0,0,1,.84.9,9.19,9.19,0,0,1-5.11,5.72,2.21,2.21,0,0,1-.87.19,1.43,1.43,0,0,1-1.43-1.62Z"/><path d="M130.65,50.09a.84.84,0,0,1,0-1.65H141a.75.75,0,0,1,.68.83.73.73,0,0,1-.68.82Z"/><path d="M149.27,47.2a26.17,26.17,0,0,0-3.9-2.18.72.72,0,0,1-.47-.66.89.89,0,0,1,.86-.88,18.36,18.36,0,0,1,4.38,2.2.85.85,0,0,1,.4.69,1,1,0,0,1-.9,1A.6.6,0,0,1,149.27,47.2ZM146,55.87h-.18a.91.91,0,0,1-.9-.93.75.75,0,0,1,.64-.76c5.79-1,8.79-3.41,10.19-7.82a.71.71,0,0,1,.72-.49.81.81,0,0,1,.87.78c0,.07,0,.15,0,.24C156.12,51.37,152.3,55,146,55.87Z"/><path d="M167.4,52.62l0-1.87c-2.3,1-3.14,2-3.14,2.76s.89,1,3.6,1a20.29,20.29,0,0,0,3.06-.23h.12a.65.65,0,0,1,.63.71.76.76,0,0,1-.7.8,22,22,0,0,1-3.12.19c-3.86,0-5.15-.74-5.15-2.33,0-1.78,1.77-3.16,4.65-4.38a1.16,1.16,0,0,0-1.2-1.06c-1.87,0-3.67,1.6-5.17,3.7a.82.82,0,0,1-.66.37.87.87,0,0,1-.86-.82.81.81,0,0,1,.21-.49,19.09,19.09,0,0,0,3.47-5.34c-.89,0-1.74,0-2.58,0a.67.67,0,0,1-.63-.73.6.6,0,0,1,.58-.66h.05c.75,0,1.5,0,2.26,0h.84c.14-.41.26-.81.38-1.23a.63.63,0,0,1,.66-.45c.4,0,.84.24.84.66a5,5,0,0,1-.27,1c1.68-.07,3.37-.18,5-.34h.08a.69.69,0,0,1,.67.73.63.63,0,0,1-.58.68c-1.2.1-3.47.27-5.72.31a15.81,15.81,0,0,1-1.08,2.13,4.42,4.42,0,0,1,2.51-.88,2.41,2.41,0,0,1,2.62,1.87c.77-.28,1.61-.57,2.51-.84a.84.84,0,0,1,.27,0,.72.72,0,0,1,.7.76.64.64,0,0,1-.46.65q-1.65.45-2.88.9v2.48a.71.71,0,0,1-.78.65c-.39,0-.77-.21-.77-.63Z"/><path d="M179.67,49.85h-2c-.08,2.82-.72,4.45-2.25,5.9a.72.72,0,0,1-.48.19.85.85,0,0,1-.84-.81.72.72,0,0,1,.24-.54c1.38-1.21,1.86-2.23,1.92-4.74h-1.53a.6.6,0,0,1-.62-.64.66.66,0,0,1,.62-.71h1.54V47.32a7.9,7.9,0,0,1-1.24.42.84.84,0,0,1-.74-.84.47.47,0,0,1,.38-.48,9.3,9.3,0,0,0,3.58-1.71.45.45,0,0,1,.3-.11.76.76,0,0,1,.69.74c0,.36-.39.66-1.56,1.33V48.5h2V45.29c0-.42.38-.61.75-.61a.66.66,0,0,1,.74.61V48.5h1.5A1.31,1.31,0,0,1,184,50c0,2.41.33,3.39.93,4.21.14.18.27.29.39.29.27,0,.54-.5.83-1.55a10.78,10.78,0,0,0-1.41-.75.53.53,0,0,1-.35-.48.65.65,0,0,1,.38-.58.73.73,0,0,1-.35-.6.54.54,0,0,1,.32-.5,6.22,6.22,0,0,0,1-.71,1,1,0,0,1-.37.07c-1.26,0-2.79-1.91-2.79-4.74,0-.12,0-.23-.17-.23h-7.15a.6.6,0,0,1-.62-.64.66.66,0,0,1,.62-.71h7.51A1.09,1.09,0,0,1,184,44.27c0,3,1.23,3.62,1.41,3.62s.45-.38.71-1.23c-.39-.21-.93-.48-1.41-.69a.5.5,0,0,1-.26-.47.75.75,0,0,1,.33-.64.88.88,0,0,1-.39-.68.45.45,0,0,1,.3-.43A5.82,5.82,0,0,0,186,43a.4.4,0,0,1,.28-.11.8.8,0,0,1,.66.78.55.55,0,0,1-.21.45,4.49,4.49,0,0,1-1.38.81c1.1.47,1.47.63,1.47,1a.72.72,0,0,1-.07.28.87.87,0,0,1,.7.8,3.85,3.85,0,0,1-1.17,2,.72.72,0,0,1,.62.68.61.61,0,0,1-.21.45,7.88,7.88,0,0,1-1.44,1,11.68,11.68,0,0,1,1.57.72.55.55,0,0,1,.32.48.5.5,0,0,1,0,.21.81.81,0,0,1,.47.71c0,.21-.89,2.88-2.28,2.88-.87,0-2.78-1.38-2.78-5.91,0-.24-.07-.32-.24-.32h-1.12v5.64a.76.76,0,0,1-1.49,0Z"/><path d="M191.34,50.21a13.57,13.57,0,0,0,.5,4.28,1.06,1.06,0,0,1,.06.34.86.86,0,0,1-1.71.12,19.5,19.5,0,0,1-.41-4.42,27.9,27.9,0,0,1,.83-6.92.8.8,0,0,1,.79-.57.71.71,0,0,1,.78.63.81.81,0,0,1,0,.2,20.08,20.08,0,0,0-.81,5.59Zm10.32-4.81a.72.72,0,0,1,.05,1.39c-.66.08-1.44.14-2.31.17,0,.1.09,3.16.09,4.65A19.69,19.69,0,0,1,202,53a.79.79,0,0,1,.37.69.81.81,0,0,1-.73.84.82.82,0,0,1-.48-.18c-.47-.34-1-.73-1.65-1.09-.18,2.17-1.56,2.73-3.33,2.73-2,0-3.44-1.17-3.44-2.87s1.35-2.52,3.29-2.52a6.45,6.45,0,0,1,2,.38c0-1.19-.05-2.63-.08-4h-1c-1.1,0-2.25,0-3.38-.06a.75.75,0,0,1-.72-.78.65.65,0,0,1,.68-.67h.07c1.2.09,2.45.12,3.65.12h.66c0-.84-.05-1.61-.06-2.22v0c0-.41.39-.62.78-.62a.66.66,0,0,1,.73.63c0,.59,0,1.34.05,2.19.85,0,1.62-.1,2.22-.16ZM198,52.52a5.45,5.45,0,0,0-2-.48c-1.13,0-1.71.45-1.71,1.16s.67,1.36,1.86,1.36,1.84-.39,1.84-1.81Zm3.2-7.45a.5.5,0,0,1-.45-.29,10.79,10.79,0,0,0-.78-1.17.5.5,0,0,1-.12-.3.52.52,0,0,1,.93-.28,5.1,5.1,0,0,1,1,1.53A.56.56,0,0,1,201.2,45.07Zm1.47-.66a.51.51,0,0,1-.42-.24,7.93,7.93,0,0,0-.8-1.1.47.47,0,0,1-.13-.31.5.5,0,0,1,.51-.45c.22,0,.46.12,1.27,1.35a.48.48,0,0,1,.09.27A.52.52,0,0,1,202.67,44.41Z"/><path d="M217.13,45.68c-1.17,0-2.36,0-3.56-.06,0,1.1,0,2.19,0,3a4.18,4.18,0,0,1,.27,1.56c0,2.89-1,5.14-5.11,5.79h-.15a.85.85,0,0,1-.86-.85.68.68,0,0,1,.62-.68c2.47-.43,3.49-1.34,3.91-2.56a4,4,0,0,1-2.34.69c-2.46,0-3.72-1.22-3.72-3s1.41-3.07,3.8-3.07a4,4,0,0,1,2.11.5c0-.44,0-.95,0-1.42h-1c-2.19,0-4.39.05-6.64.12h0c-.41,0-.6-.37-.6-.73s.18-.71.55-.71c2.58,0,5.12,0,7.59,0,0-.3,0-.6-.06-.89v-.06c0-.39.38-.6.78-.6a.7.7,0,0,1,.78.63c0,.29,0,.6,0,.9l3.62,0a.63.63,0,0,1,.61.7.65.65,0,0,1-.61.72ZM210,47.92c-1.47,0-2.31.69-2.31,1.74,0,.8.74,1.55,2.21,1.55s2.41-.52,2.41-1.81C212.34,48.59,211.49,47.92,210,47.92Z"/></g></g></svg>