<svg xmlns="http://www.w3.org/2000/svg" viewBox="0 0 288 100"><defs><style>.cls-1{fill:#fff;opacity:0;}.cls-2{fill:none;stroke:#4d4d4d;stroke-miterlimit:10;}.cls-3{fill:#7095ff;}</style></defs><title>アセット 122</title><g id="レイヤー_2" data-name="レイヤー 2"><g id="レイヤー_1-2" data-name="レイヤー 1"><rect class="cls-1" width="288" height="100"/><path class="cls-2" d="M45.62,77s37.66,25.66-29.34,15.77"/><path class="cls-3" d="M81.65,38.56c-1.21,17.28-16.5,39.29-33.78,38.08s-30-25.18-28.81-42.46a31.37,31.37,0,0,1,62.59,4.38Z"/><polygon class="cls-3" points="46.98 72.32 40.02 79.77 52.23 81.05 46.98 72.32"/><path d="M99.3,55.54a1,1,0,0,1-.94-.91.91.91,0,0,1,.19-.53,23.35,23.35,0,0,0,4.22-9.92.73.73,0,0,1,.76-.57.79.79,0,0,1,.86.71.41.41,0,0,1,0,.15A28.58,28.58,0,0,1,100,55.13.84.84,0,0,1,99.3,55.54Zm12.57.1a.84.84,0,0,1-.82-.68A53.71,53.71,0,0,0,107,44.72a.69.69,0,0,1-.09-.36.84.84,0,0,1,.87-.75.71.71,0,0,1,.65.39,68.44,68.44,0,0,1,4.38,10.46,1.08,1.08,0,0,1,0,.3A.91.91,0,0,1,111.87,55.64Zm-1-9.93a.53.53,0,0,1-.44-.25,9.14,9.14,0,0,0-1.09-1.35.5.5,0,0,1-.17-.36.55.55,0,0,1,.56-.53.6.6,0,0,1,.4.18c.5.48,1.32,1.38,1.32,1.74A.58.58,0,0,1,110.9,45.71Zm1.48-.84a.51.51,0,0,1-.42-.22,9.41,9.41,0,0,0-1.09-1.23.5.5,0,0,1-.17-.36.51.51,0,0,1,.53-.48.54.54,0,0,1,.39.16c.15.15,1.29,1.2,1.29,1.62A.54.54,0,0,1,112.38,44.87Z"/><path d="M116.88,43.61a.83.83,0,0,1,1.64,0v5.07c0,3-.84,5.57-3.24,7.08a1,1,0,0,1-.5.17,1,1,0,0,1-.88-1,.72.72,0,0,1,.36-.63c1.87-1.24,2.62-3.19,2.62-5.67Zm3.69,0a.83.83,0,0,1,1.64,0v9.69c0,.2.09.31.22.31a.7.7,0,0,0,.14,0,7.44,7.44,0,0,0,3.82-4.21.82.82,0,0,1,.75-.59.89.89,0,0,1,.84.9,9.19,9.19,0,0,1-5.11,5.72,2.21,2.21,0,0,1-.87.19,1.43,1.43,0,0,1-1.43-1.62Z"/><path d="M130.65,50.09a.84.84,0,0,1,0-1.65H141a.75.75,0,0,1,.68.83.73.73,0,0,1-.68.82Z"/><path d="M149.27,47.2a26.17,26.17,0,0,0-3.9-2.18.72.72,0,0,1-.47-.66.89.89,0,0,1,.86-.88,18.36,18.36,0,0,1,4.38,2.2.85.85,0,0,1,.4.69,1,1,0,0,1-.9,1A.6.6,0,0,1,149.27,47.2ZM146,55.87h-.18a.91.91,0,0,1-.9-.93.75.75,0,0,1,.64-.76c5.79-1,8.79-3.41,10.19-7.82a.71.71,0,0,1,.72-.49.81.81,0,0,1,.87.78c0,.07,0,.15,0,.24C156.12,51.37,152.3,55,146,55.87Z"/><path d="M167.4,52.62l0-1.87c-2.3,1-3.14,2-3.14,2.76s.89,1,3.6,1a20.29,20.29,0,0,0,3.06-.23h.12a.65.65,0,0,1,.63.71.76.76,0,0,1-.7.8,22,22,0,0,1-3.12.19c-3.86,0-5.15-.74-5.15-2.33,0-1.78,1.77-3.16,4.65-4.38a1.16,1.16,0,0,0-1.2-1.06c-1.87,0-3.67,1.6-5.17,3.7a.82.82,0,0,1-.66.37.87.87,0,0,1-.86-.82.81.81,0,0,1,.21-.49,19.09,19.09,0,0,0,3.47-5.34c-.89,0-1.74,0-2.58,0a.67.67,0,0,1-.63-.73.6.6,0,0,1,.58-.66h.05c.75,0,1.5,0,2.26,0h.84c.14-.41.26-.81.38-1.23a.63.63,0,0,1,.66-.45c.4,0,.84.24.84.66a5,5,0,0,1-.27,1c1.68-.07,3.37-.18,5-.34h.08a.69.69,0,0,1,.67.73.63.63,0,0,1-.58.68c-1.2.1-3.47.27-5.72.31a15.81,15.81,0,0,1-1.08,2.13,4.42,4.42,0,0,1,2.51-.88,2.41,2.41,0,0,1,2.62,1.87c.77-.28,1.61-.57,2.51-.84a.84.84,0,0,1,.27,0,.72.72,0,0,1,.7.76.64.64,0,0,1-.46.65q-1.65.45-2.88.9v2.48a.71.71,0,0,1-.78.65c-.39,0-.77-.21-.77-.63Z"/><path d="M181.94,51.52c-.71,1.42-2.57,3.76-3.27,3.76a.91.91,0,0,1-.83-.87.62.62,0,0,1,.3-.53,14.16,14.16,0,0,0,3.5-3.55h-2.58a.57.57,0,0,1-.56-.36,13.33,13.33,0,0,1-1.27.59v3.9c0,1-.38,1.53-1.52,1.53s-1.63-.24-1.63-.86a.65.65,0,0,1,.57-.72l.16,0a3.14,3.14,0,0,0,.71.14c.24,0,.27-.14.27-.39V51.08a8.8,8.8,0,0,1-1,.26.84.84,0,0,1-.72-.84.55.55,0,0,1,.45-.56c.44-.09.86-.21,1.28-.33v-3h-.89a.68.68,0,0,1,0-1.35h.89V43.19a.73.73,0,0,1,1.44,0v2.07H178a.5.5,0,0,1,.34.11V44.05a1,1,0,0,1,1-1h6.8a1,1,0,0,1,1,1V45.4a.38.38,0,0,1-.14.31.78.78,0,0,1,.51.69.57.57,0,0,1,0,.18c-.45,1.47-1,1.53-1.93,1.53h-.86a1.38,1.38,0,0,1-1.51-1.53V45.2a.7.7,0,0,1,1.39,0v1.13c0,.25.06.43.33.43h.6c.51,0,.56-.09.69-.6a.83.83,0,0,1,.12-.27.53.53,0,0,1-.52-.49v-.81a.16.16,0,0,0-.18-.18h-5.78a.16.16,0,0,0-.18.18v1c0,.34-.33.51-.67.51a.91.91,0,0,1-.41-.09.62.62,0,0,1-.61.64h-.78v2.51l.84-.35a.65.65,0,0,1,.25-.06.47.47,0,0,1,.42.36.79.79,0,0,1,.32-.07h2.88v-.83a.71.71,0,0,1,1.41,0V49h3.4a.67.67,0,0,1,0,1.33h-3.16a16.94,16.94,0,0,0,3.7,3.55.59.59,0,0,1,.27.5.94.94,0,0,1-.84.89.62.62,0,0,1-.4-.17,15.48,15.48,0,0,1-3-3.58v4a.71.71,0,0,1-1.41,0Zm-3-3.08a.27.27,0,0,1-.12,0,.89.89,0,0,1-.79-.89.56.56,0,0,1,.54-.58A2.39,2.39,0,0,0,181,45a.53.53,0,0,1,.54-.42.78.78,0,0,1,.8.68.41.41,0,0,1,0,.15A3.79,3.79,0,0,1,179,48.44Z"/><path d="M202.13,45.68c-1.17,0-2.36,0-3.56-.06,0,1.1,0,2.19,0,3a4.18,4.18,0,0,1,.27,1.56c0,2.89-1,5.14-5.11,5.79h-.15a.85.85,0,0,1-.86-.85.68.68,0,0,1,.62-.68c2.47-.43,3.49-1.34,3.91-2.56a4,4,0,0,1-2.34.69c-2.46,0-3.72-1.22-3.72-3s1.41-3.07,3.8-3.07a4,4,0,0,1,2.11.5c0-.44,0-.95,0-1.42h-1c-2.19,0-4.39.05-6.64.12h0c-.41,0-.6-.37-.6-.73s.18-.71.55-.71c2.58,0,5.12,0,7.59,0,0-.3,0-.6-.06-.89v-.06c0-.39.38-.6.78-.6a.7.7,0,0,1,.78.63c0,.29,0,.6,0,.9l3.62,0a.63.63,0,0,1,.61.7.65.65,0,0,1-.61.72ZM195,47.92c-1.47,0-2.31.69-2.31,1.74,0,.8.74,1.55,2.21,1.55s2.41-.52,2.41-1.81C197.34,48.59,196.49,47.92,195,47.92Z"/></g></g></svg>