<svg xmlns="http://www.w3.org/2000/svg" viewBox="0 0 120 160.5"><defs><style>.cls-1{fill:#fff;opacity:0;}.cls-2{fill:none;stroke:#4d4d4d;stroke-miterlimit:10;}.cls-3{fill:#7095ff;}.cls-4{fill:#1e1e1e;}</style></defs><title>アセット 97</title><g id="レイヤー_2" data-name="レイヤー 2"><g id="レイヤー_1-2" data-name="レイヤー 1"><rect class="cls-1" width="120" height="160"/><path class="cls-2" d="M54.75,131.93s58.58,39.92-45.65,24.55"/><path class="cls-3" d="M110.78,72.2c-1.88,26.88-25.65,61.12-52.54,59.24s-46.69-39.17-44.81-66a48.79,48.79,0,0,1,97.35,6.81Z"/><polygon class="cls-3" points="56.85 124.72 46.03 136.31 65.03 138.3 56.85 124.72"/><path class="cls-4" d="M31.25,74.45c-.34.76-.79,1-1.2,1a2.05,2.05,0,0,1-1.69-2,1.32,1.32,0,0,1,.27-.86,27.9,27.9,0,0,0,4.9-11.72,1.37,1.37,0,0,1,1.48-1c.83,0,1.72.48,1.72,1.31a1.09,1.09,0,0,1,0,.31A47.6,47.6,0,0,1,34.35,69V89.41a1.41,1.41,0,0,1-1.55,1.41,1.43,1.43,0,0,1-1.55-1.41Zm18.58,3.41a32.2,32.2,0,0,0,8.89,8.41,1.25,1.25,0,0,1,.58,1.07,2,2,0,0,1-1.79,1.93c-1.2,0-6.2-4.65-8.89-8.89v9A1.45,1.45,0,0,1,47,90.78a1.39,1.39,0,0,1-1.52-1.37v-9c-2.93,4.82-7.51,8.78-8.61,8.78a2,2,0,0,1-1.8-1.92,1.31,1.31,0,0,1,.59-1.11,29.74,29.74,0,0,0,8.75-8.27H36.87a1.44,1.44,0,0,1-1.41-1.55,1.43,1.43,0,0,1,1.41-1.55h8.65V72H39.8a2.19,2.19,0,0,1-2.48-2.48V63.29a2.19,2.19,0,0,1,2.48-2.48H54.93a2.19,2.19,0,0,1,2.48,2.48v6.27A2.19,2.19,0,0,1,54.93,72H48.62v2.72h9.13a1.41,1.41,0,0,1,1.41,1.55,1.42,1.42,0,0,1-1.41,1.55Zm4.48-13.44a.46.46,0,0,0-.52-.51H40.94a.45.45,0,0,0-.52.51v4a.46.46,0,0,0,.52.52H53.79a.46.46,0,0,0,.52-.52Z"/><path class="cls-4" d="M75.85,67.08a31.69,31.69,0,0,1-5.79,7.27V89.44c0,1-.87,1.41-1.73,1.41s-1.72-.44-1.72-1.41V77.07c-1.27.86-1.69.93-2,.93a2.12,2.12,0,0,1-1.93-2.1,1.21,1.21,0,0,1,.58-1.1,26.3,26.3,0,0,0,8.55-7.72h-7a1.49,1.49,0,0,1-1.41-1.62,1.47,1.47,0,0,1,1.41-1.62h8.83A29.77,29.77,0,0,0,75,60.74a1.43,1.43,0,0,1,1.45-.83c.93,0,1.93.55,1.93,1.38a10.87,10.87,0,0,1-.93,2.55H92.28a1.45,1.45,0,0,1,1.42,1.62,1.47,1.47,0,0,1-1.42,1.62ZM88.29,85.62c0,3.68-2.69,5.16-6.9,5.16h-.58a16,16,0,0,1-6.14-1.44A1.52,1.52,0,0,1,73.74,88a1.65,1.65,0,0,1,1.66-1.65,2.29,2.29,0,0,1,.65.1,17,17,0,0,0,4.65,1.14h.38c2.24,0,3.41-.83,3.48-2.21V85.1a6,6,0,0,0-1.48-3.76H72.5a1.44,1.44,0,0,1-1.41-1.55,1.43,1.43,0,0,1,1.41-1.55h7.72a5.8,5.8,0,0,1-.48-.52.91.91,0,0,1-.24-.65,1.91,1.91,0,0,1,1.27-1.62c1.83-.69,3.79-1.65,6-2.76H76a1.5,1.5,0,1,1,0-3H89.18c1.72,0,2.55,1,2.55,2a2.63,2.63,0,0,1-1.27,2.14,42.59,42.59,0,0,1-6.28,3.34c-.41.18-.55.35-.55.52a.27.27,0,0,0,.14.24l.28.31h8.34a1.41,1.41,0,0,1,1.41,1.55,1.43,1.43,0,0,1-1.41,1.55H86.84a7.2,7.2,0,0,1,1.45,4.14Z"/></g></g></svg>