<svg xmlns="http://www.w3.org/2000/svg" viewBox="0 0 120 160.5"><defs><style>.cls-1{fill:#fff;opacity:0;}.cls-2{fill:none;stroke:#4d4d4d;stroke-miterlimit:10;}.cls-3{fill:#7095ff;}.cls-4{fill:#1e1e1e;}</style></defs><title>アセット 96</title><g id="レイヤー_2" data-name="レイヤー 2"><g id="レイヤー_1-2" data-name="レイヤー 1"><rect class="cls-1" width="120" height="160"/><path class="cls-2" d="M54.75,131.93s58.58,39.92-45.65,24.55"/><path class="cls-3" d="M110.78,72.2c-1.88,26.88-25.65,61.12-52.54,59.24s-46.69-39.17-44.81-66a48.79,48.79,0,0,1,97.35,6.81Z"/><polygon class="cls-3" points="56.85 124.72 46.03 136.31 65.03 138.3 56.85 124.72"/><path class="cls-4" d="M47.46,80.31C45.84,83.58,41.57,89,40,89a2.08,2.08,0,0,1-1.9-2,1.42,1.42,0,0,1,.69-1.21,32.61,32.61,0,0,0,8-8.16H40.84a1.3,1.3,0,0,1-1.27-.83,30.72,30.72,0,0,1-2.93,1.34v9c0,2.35-.86,3.52-3.48,3.52-2.83,0-3.76-.55-3.76-2A1.49,1.49,0,0,1,30.71,87a1.54,1.54,0,0,1,.38.07,6.76,6.76,0,0,0,1.62.31c.55,0,.62-.31.62-.9V79.31A19.68,19.68,0,0,1,31,79.9,1.91,1.91,0,0,1,29.37,78a1.24,1.24,0,0,1,1-1.28c1-.21,2-.48,2.93-.76V69h-2a1.45,1.45,0,0,1-1.42-1.55,1.44,1.44,0,0,1,1.42-1.55h2V61.18a1.68,1.68,0,0,1,3.31,0v4.76h1.79a1.2,1.2,0,0,1,.79.24v-3a2.28,2.28,0,0,1,2.35-2.34H57.18a2.28,2.28,0,0,1,2.34,2.34v3.1a.87.87,0,0,1-.31.72,1.84,1.84,0,0,1,1.17,1.59,1.47,1.47,0,0,1-.07.41c-1,3.38-2.24,3.52-4.44,3.52h-2A3.19,3.19,0,0,1,50.42,69V65.8a1.62,1.62,0,0,1,3.21,0v2.59c0,.58.13,1,.75,1h1.38c1.17,0,1.28-.21,1.59-1.38a1.85,1.85,0,0,1,.27-.62c-.65-.11-1.2-.48-1.2-1.14V64.39c0-.28-.14-.41-.42-.41H42.74c-.28,0-.42.13-.42.41v2.2c0,.8-.75,1.18-1.55,1.18a2.05,2.05,0,0,1-.93-.21A1.43,1.43,0,0,1,38.43,69H36.64V74.8c.65-.25,1.31-.52,1.93-.8a1.31,1.31,0,0,1,.58-.13,1.05,1.05,0,0,1,1,.82,1.66,1.66,0,0,1,.72-.17h6.62V72.63a1.47,1.47,0,0,1,1.62-1.42,1.46,1.46,0,0,1,1.62,1.42v1.89h7.82a1.54,1.54,0,0,1,0,3.07H51.25a39.37,39.37,0,0,0,8.51,8.16,1.34,1.34,0,0,1,.62,1.14,2.15,2.15,0,0,1-1.93,2,1.48,1.48,0,0,1-.93-.38,36.19,36.19,0,0,1-6.82-8.24v9.13a1.45,1.45,0,0,1-1.62,1.41,1.46,1.46,0,0,1-1.62-1.41ZM40.6,73.25a1,1,0,0,1-.27,0,2,2,0,0,1-1.83-2,1.32,1.32,0,0,1,1.24-1.35c3.58-.48,4.89-1.93,5.55-4.58a1.2,1.2,0,0,1,1.24-1,1.77,1.77,0,0,1,1.82,1.55,1.31,1.31,0,0,1,0,.34C47.29,70.32,44.94,72.38,40.6,73.25Z"/><path class="cls-4" d="M93.84,66.91c-2.69-.07-5.41-.11-8.16-.14.06,2.51.06,5,.06,6.92a9.55,9.55,0,0,1,.62,3.59c0,6.65-2.37,11.82-11.75,13.3l-.34,0a2,2,0,0,1-2-2,1.54,1.54,0,0,1,1.41-1.55c5.68-1,8-3.07,9-5.89a9.21,9.21,0,0,1-5.37,1.58c-5.65,0-8.55-2.79-8.55-6.86s3.24-7.06,8.72-7.06A9.26,9.26,0,0,1,82.37,70c0-1-.07-2.21-.11-3.27H80.09c-5,0-10.09.1-15.26.27h-.07a1.51,1.51,0,0,1-1.38-1.69c0-.79.41-1.61,1.28-1.61,5.92-.07,11.75-.11,17.43-.11,0-.69-.07-1.38-.14-2v-.14c0-.9.87-1.38,1.8-1.38a1.63,1.63,0,0,1,1.79,1.45c0,.65,0,1.38.07,2.07,2.79,0,5.58,0,8.3,0a1.47,1.47,0,0,1,1.41,1.62,1.5,1.5,0,0,1-1.41,1.66ZM77.54,72c-3.37,0-5.3,1.59-5.3,4,0,1.86,1.69,3.58,5.06,3.58,3.14,0,5.55-1.21,5.55-4.17C82.85,73.59,80.89,72,77.54,72Z"/></g></g></svg>