<svg xmlns="http://www.w3.org/2000/svg" viewBox="0 0 120 160.19"><defs><style>.cls-1{fill:#fff;opacity:0;}.cls-2{fill:none;stroke:#4d4d4d;stroke-miterlimit:10;}.cls-3{fill:#ffa73f;}.cls-4{fill:#1e1e1e;}</style></defs><title>アセット 104</title><g id="レイヤー_2" data-name="レイヤー 2"><g id="レイヤー_1-2" data-name="レイヤー 1"><rect class="cls-1" width="120" height="160"/><path class="cls-2" d="M51.37,131.32s5.36,12.05-1.46,28.68"/><path class="cls-3" d="M117.11,61.24C114.9,92.78,87,133,55.47,130.74S.69,84.79,2.9,53.25a57.24,57.24,0,0,1,114.21,8Z"/><polygon class="cls-3" points="53.84 122.85 41.15 136.45 63.43 138.79 53.84 122.85"/><path class="cls-4" d="M20.12,62c-.45,1-1,1.35-1.58,1.35-1.12,0-2.2-1.39-2.2-2.65a1.7,1.7,0,0,1,.36-1.13c3.19-4,5.18-9.4,6.39-15.3A1.78,1.78,0,0,1,25,42.92c1.08,0,2.25.63,2.25,1.71a1.43,1.43,0,0,1,0,.41,63,63,0,0,1-3.06,9.81V81.53a1.85,1.85,0,0,1-2,1.85,1.86,1.86,0,0,1-2-1.85Zm24.25,4.46A42.13,42.13,0,0,0,56,77.44a1.61,1.61,0,0,1,.77,1.39,2.62,2.62,0,0,1-2.34,2.52c-1.58,0-8.1-6.07-11.61-11.61V81.53a1.9,1.9,0,0,1-2.07,1.8,1.82,1.82,0,0,1-2-1.8V69.74C34.92,76,28.94,81.22,27.5,81.22a2.65,2.65,0,0,1-2.34-2.52,1.68,1.68,0,0,1,.76-1.44,39,39,0,0,0,11.43-10.8h-9.9a1.89,1.89,0,0,1-1.84-2,1.86,1.86,0,0,1,1.84-2h11.3V58.85H31.28Q28,58.85,28,55.61V47.42q0-3.24,3.24-3.24H51q3.24,0,3.24,3.24v8.19q0,3.24-3.24,3.24H42.8v3.56H54.72a1.84,1.84,0,0,1,1.85,2,1.87,1.87,0,0,1-1.85,2Zm5.85-17.55a.6.6,0,0,0-.67-.68H32.76a.6.6,0,0,0-.67.68v5.22a.59.59,0,0,0,.67.67H49.55a.59.59,0,0,0,.67-.67Z"/><path class="cls-4" d="M78.35,52.37a41.36,41.36,0,0,1-7.56,9.5V81.58c0,1.26-1.12,1.84-2.25,1.84s-2.25-.58-2.25-1.84V65.42c-1.67,1.13-2.21,1.22-2.57,1.22a2.78,2.78,0,0,1-2.51-2.75A1.59,1.59,0,0,1,62,62.45c4.91-3,8.41-6,11.16-10.08H64a2.13,2.13,0,0,1,0-4.23H75.51a37.31,37.31,0,0,0,1.76-4A1.88,1.88,0,0,1,79.16,43c1.21,0,2.52.72,2.52,1.8a14.14,14.14,0,0,1-1.22,3.33H99.81a2.13,2.13,0,0,1,0,4.23ZM94.59,76.58c0,4.82-3.51,6.75-9,6.75h-.76a20.84,20.84,0,0,1-8-1.89,2,2,0,0,1-1.22-1.8,2.16,2.16,0,0,1,2.16-2.16,3.14,3.14,0,0,1,.86.14,22.36,22.36,0,0,0,6.07,1.48h.5c2.92,0,4.45-1.08,4.54-2.88v-.31A7.85,7.85,0,0,0,87.8,71H74a2,2,0,0,1,0-4H84.06c-.22-.22-.45-.45-.63-.67a1.22,1.22,0,0,1-.31-.86,2.46,2.46,0,0,1,1.66-2.11c2.39-.9,5-2.16,7.88-3.6H78.48a2,2,0,1,1,0-3.92H95.76c2.25,0,3.33,1.26,3.33,2.61a3.41,3.41,0,0,1-1.66,2.79,56.5,56.5,0,0,1-8.19,4.37c-.54.22-.72.45-.72.67a.33.33,0,0,0,.18.32c.09.09.27.31.36.4H100a2,2,0,0,1,0,4H92.7a9.35,9.35,0,0,1,1.89,5.4Z"/></g></g></svg>