<svg xmlns="http://www.w3.org/2000/svg" viewBox="0 0 120 160.19"><defs><style>.cls-1{fill:#fff;opacity:0;}.cls-2{fill:none;stroke:#4d4d4d;stroke-miterlimit:10;}.cls-3{fill:#ffa73f;}.cls-4{fill:#1e1e1e;}</style></defs><title>アセット 105</title><g id="レイヤー_2" data-name="レイヤー 2"><g id="レイヤー_1-2" data-name="レイヤー 1"><rect class="cls-1" width="120" height="160"/><path class="cls-2" d="M51.37,131.32s5.36,12.05-1.46,28.68"/><path class="cls-3" d="M117.11,61.24C114.9,92.78,87,133,55.47,130.74S.69,84.79,2.9,53.25a57.24,57.24,0,0,1,114.21,8Z"/><polygon class="cls-3" points="53.84 122.85 41.15 136.45 63.43 138.79 53.84 122.85"/><path class="cls-4" d="M19,51.69a1.81,1.81,0,0,1-1.8-1.94A1.79,1.79,0,0,1,19,47.86H32.14a1.76,1.76,0,0,1,1.8,1.89,1.78,1.78,0,0,1-1.8,1.94Zm1.93,28.25a2.29,2.29,0,0,1-2.6-2.61v-8a2.29,2.29,0,0,1,2.6-2.61h8.87a2.3,2.3,0,0,1,2.61,2.61v8a2.3,2.3,0,0,1-2.61,2.61Zm-.58-34.56a1.91,1.91,0,0,1,0-3.82h10.3a1.91,1.91,0,0,1,0,3.82Zm0,18.91a1.81,1.81,0,0,1-1.8-1.94,1.79,1.79,0,0,1,1.8-1.89h10.3a1.76,1.76,0,0,1,1.8,1.89,1.78,1.78,0,0,1-1.8,1.94Zm0-6.31a1.91,1.91,0,0,1,0-3.82H30.61a1.91,1.91,0,0,1,0,3.82Zm8,13.1a.48.48,0,0,0-.54-.54H22.92a.48.48,0,0,0-.54.54v4.54a.48.48,0,0,0,.54.54h4.86a.48.48,0,0,0,.54-.54ZM51.4,57c-2.25,0-3.28-1.31-3.28-3.82v-7.2c0-.27-.09-.32-.45-.32H41.55c-.27,0-.36.09-.36.36-.18,5.26-1.17,8.77-5,11.25a2,2,0,0,1-1.08.32,2.44,2.44,0,0,1-2.3-2.34,1.89,1.89,0,0,1,.9-1.58c2.93-2,3.42-3.69,3.42-9.45a2.4,2.4,0,0,1,2.7-2.61h9.68a2.39,2.39,0,0,1,2.7,2.7V52c0,.63.13.9.63.9.72,0,.94-.63,1.21-4.82a1.67,1.67,0,0,1,1.71-1.7,2,2,0,0,1,2,2.07v.22C57.12,54.61,56.67,57,53.56,57Zm-.09,6c0-.18-.09-.32-.36-.32H35.07a1.89,1.89,0,0,1-1.85-2,1.86,1.86,0,0,1,1.85-2H52.26c2.29,0,3.51,1.21,3.51,3.14s-2.39,8.51-6.57,12.42a43.8,43.8,0,0,0,6.93,2.25,2,2,0,0,1,1.62,2,2.26,2.26,0,0,1-2.21,2.3,31.61,31.61,0,0,1-9.94-3.83,35.35,35.35,0,0,1-10.4,3.83.83.83,0,0,1-.31,0c-1.13,0-2.07-1.39-2.07-2.61a1.49,1.49,0,0,1,1.3-1.57,35.9,35.9,0,0,0,7.74-2.3c-3.73-3.19-6.25-7.87-6.25-9a2.13,2.13,0,0,1,2.2-1.93,1.52,1.52,0,0,1,1.4.81,21.4,21.4,0,0,0,6.39,8c2.92-2.2,4.54-5.13,5.71-9Z"/><path class="cls-4" d="M100.9,75a1.78,1.78,0,0,1,1.85,2,2.45,2.45,0,0,1-2.07,2.61c-3.15.09-7.16.09-11.48.09-7.33,0-13.09-.95-18-6.62-1.53,3.33-4.37,7.79-6,7.79a3.14,3.14,0,0,1-2.75-2.88,2,2,0,0,1,.54-1.31c2.7-2.92,5.5-7.06,6.53-14.4a1.89,1.89,0,0,1,2.07-1.66,2.23,2.23,0,0,1,2.43,2c0,.09,0,.22,0,.31a47.06,47.06,0,0,1-1.21,5.9,15.48,15.48,0,0,0,7.38,5.4v-17h-12a2.08,2.08,0,0,1,0-4.13H96.94a2.08,2.08,0,0,1,0,4.13H84.75V63H95.14a2.11,2.11,0,0,1,0,4.18H84.75v8a36,36,0,0,0,4.45.22c3.6,0,5.67,0,11.52-.4ZM97.12,48.58c0-.45-.49-.67-.94-.67H68.5a.59.59,0,0,0-.67.67v3.24c0,1-1.12,1.53-2.25,1.53s-2.25-.54-2.25-1.53V47c0-2.16,1.08-3.28,3.24-3.28H80V41.61c0-1,1.26-1.4,2.52-1.4s2.47.45,2.47,1.4v2.07H98.38c2.16,0,3.24,1.12,3.24,3.28v4.82c0,1-1.12,1.52-2.25,1.52s-2.25-.53-2.25-1.52Z"/></g></g></svg>