<svg xmlns="http://www.w3.org/2000/svg" viewBox="0 0 120 160.5"><defs><style>.cls-1{fill:#fff;opacity:0;}.cls-2{fill:none;stroke:#4d4d4d;stroke-miterlimit:10;}.cls-3{fill:#7095ff;}.cls-4{fill:#1e1e1e;}</style></defs><title>アセット 98</title><g id="レイヤー_2" data-name="レイヤー 2"><g id="レイヤー_1-2" data-name="レイヤー 1"><rect class="cls-1" width="120" height="160"/><path class="cls-2" d="M54.75,131.93s58.58,39.92-45.65,24.55"/><path class="cls-3" d="M110.78,72.2c-1.88,26.88-25.65,61.12-52.54,59.24s-46.69-39.17-44.81-66a48.79,48.79,0,0,1,97.35,6.81Z"/><polygon class="cls-3" points="56.85 124.72 46.03 136.31 65.03 138.3 56.85 124.72"/><path class="cls-4" d="M30.68,68.56a1.39,1.39,0,0,1-1.38-1.48,1.37,1.37,0,0,1,1.38-1.45H40.77a1.35,1.35,0,0,1,1.38,1.45,1.37,1.37,0,0,1-1.38,1.48ZM32.16,90.2a1.76,1.76,0,0,1-2-2V82.1a1.76,1.76,0,0,1,2-2H39a1.76,1.76,0,0,1,2,2v6.1a1.76,1.76,0,0,1-2,2Zm-.45-26.46a1.39,1.39,0,0,1-1.38-1.49,1.37,1.37,0,0,1,1.38-1.44H39.6A1.35,1.35,0,0,1,41,62.25a1.37,1.37,0,0,1-1.38,1.49Zm0,14.47a1.39,1.39,0,0,1-1.38-1.48,1.37,1.37,0,0,1,1.38-1.45H39.6A1.35,1.35,0,0,1,41,76.73a1.37,1.37,0,0,1-1.38,1.48Zm0-4.83a1.47,1.47,0,0,1,0-2.93H39.6a1.47,1.47,0,0,1,0,2.93Zm6.1,10a.36.36,0,0,0-.41-.41H33.71a.36.36,0,0,0-.41.41v3.48c0,.28.13.42.41.42h3.72c.28,0,.41-.14.41-.42ZM55.52,72.59c-1.72,0-2.51-1-2.51-2.93V64.15c0-.21-.07-.24-.35-.24H48c-.21,0-.28.07-.28.27-.14,4-.9,6.72-3.86,8.62A1.55,1.55,0,0,1,43,73a1.87,1.87,0,0,1-1.76-1.79A1.47,1.47,0,0,1,41.94,70c2.24-1.52,2.62-2.82,2.62-7.24a1.84,1.84,0,0,1,2.07-2H54a1.83,1.83,0,0,1,2.07,2.06V68.8c0,.48.1.69.48.69.55,0,.72-.48.93-3.69a1.28,1.28,0,0,1,1.31-1.31,1.55,1.55,0,0,1,1.55,1.59v.17c-.48,4.55-.83,6.34-3.2,6.34Zm-.07,4.62c0-.14-.07-.24-.27-.24H43a1.45,1.45,0,0,1-1.41-1.55A1.42,1.42,0,0,1,43,73.87H56.18c1.75,0,2.68.93,2.68,2.41s-1.82,6.51-5,9.51a35.33,35.33,0,0,0,5.31,1.72A1.52,1.52,0,0,1,60.38,89a1.72,1.72,0,0,1-1.69,1.75,24.07,24.07,0,0,1-7.61-2.92,27.22,27.22,0,0,1-8,2.92.55.55,0,0,1-.25,0c-.86,0-1.58-1.07-1.58-2a1.16,1.16,0,0,1,1-1.21,28,28,0,0,0,5.93-1.75c-2.86-2.45-4.79-6-4.79-6.89a1.63,1.63,0,0,1,1.68-1.49,1.17,1.17,0,0,1,1.07.62,16.42,16.42,0,0,0,4.9,6.1,12.45,12.45,0,0,0,4.37-6.89Z"/><path class="cls-4" d="M93.43,86.37a1.37,1.37,0,0,1,1.41,1.52,1.87,1.87,0,0,1-1.58,2c-2.42.07-5.48.07-8.79.07-5.62,0-10-.73-13.82-5.07-1.17,2.55-3.34,6-4.62,6a2.38,2.38,0,0,1-2.1-2.2,1.48,1.48,0,0,1,.42-1,19.18,19.18,0,0,0,5-11,1.46,1.46,0,0,1,1.59-1.27,1.71,1.71,0,0,1,1.86,1.51c0,.07,0,.18,0,.24a35.17,35.17,0,0,1-.93,4.52,11.83,11.83,0,0,0,5.65,4.13v-13h-9.2a1.6,1.6,0,0,1,0-3.17H90.4a1.6,1.6,0,0,1,0,3.17H81.06v4.45h8a1.61,1.61,0,0,1,0,3.2h-8v6.1a27.11,27.11,0,0,0,3.41.18c2.76,0,4.34,0,8.82-.32Zm-2.9-20.19c0-.34-.38-.52-.72-.52H68.62a.46.46,0,0,0-.52.52v2.48c0,.76-.86,1.17-1.72,1.17s-1.72-.41-1.72-1.17V64.94a2.22,2.22,0,0,1,2.48-2.52H77.41V60.84c0-.72,1-1.07,1.93-1.07s1.89.35,1.89,1.07v1.58H91.5A2.22,2.22,0,0,1,94,64.94v3.69c0,.76-.86,1.17-1.72,1.17s-1.73-.41-1.73-1.17Z"/></g></g></svg>