<svg xmlns="http://www.w3.org/2000/svg" viewBox="0 0 120 160.19"><defs><style>.cls-1{fill:#fff;opacity:0;}.cls-2{fill:none;stroke:#4d4d4d;stroke-miterlimit:10;}.cls-3{fill:#ffa73f;}.cls-4{fill:#1e1e1e;}</style></defs><title>アセット 99</title><g id="レイヤー_2" data-name="レイヤー 2"><g id="レイヤー_1-2" data-name="レイヤー 1"><rect class="cls-1" width="120" height="160"/><path class="cls-2" d="M51.37,131.32s5.36,12.05-1.46,28.68"/><path class="cls-3" d="M117.11,61.24C114.9,92.78,87,133,55.47,130.74S.69,84.79,2.9,53.25a57.24,57.24,0,0,1,114.21,8Z"/><polygon class="cls-3" points="53.84 122.85 41.15 136.45 63.43 138.79 53.84 122.85"/><path class="cls-4" d="M45.13,72c-1.65,3.33-6,8.79-7.63,8.79a2.12,2.12,0,0,1-1.93-2,1.44,1.44,0,0,1,.7-1.23,33.14,33.14,0,0,0,8.16-8.29h-6a1.34,1.34,0,0,1-1.3-.85,31.48,31.48,0,0,1-3,1.37v9.1c0,2.38-.88,3.57-3.54,3.57-2.87,0-3.81-.56-3.81-2a1.52,1.52,0,0,1,1.33-1.68,1.54,1.54,0,0,1,.38.07,7,7,0,0,0,1.65.31c.56,0,.63-.31.63-.91V70.94a22,22,0,0,1-2.35.59,2,2,0,0,1-1.68-2,1.26,1.26,0,0,1,1.05-1.29c1-.22,2-.49,3-.78v-7H28.71a1.58,1.58,0,0,1,0-3.15h2.07V52.52a1.5,1.5,0,0,1,1.68-1.43,1.5,1.5,0,0,1,1.68,1.43v4.83H36a1.2,1.2,0,0,1,.8.25V54.52a2.32,2.32,0,0,1,2.38-2.38H55a2.32,2.32,0,0,1,2.38,2.38v3.15a.9.9,0,0,1-.32.73A1.84,1.84,0,0,1,58.25,60a1.54,1.54,0,0,1-.07.42c-1,3.43-2.27,3.57-4.51,3.57h-2a3.23,3.23,0,0,1-3.53-3.57V57.21a1.64,1.64,0,0,1,3.25,0v2.63c0,.59.14,1,.77,1h1.4c1.19,0,1.3-.21,1.61-1.4a1.81,1.81,0,0,1,.28-.63c-.66-.1-1.22-.49-1.22-1.15V55.78a.37.37,0,0,0-.42-.42H40.33a.37.37,0,0,0-.42.42V58c0,.8-.77,1.19-1.57,1.19a2.11,2.11,0,0,1-1-.21A1.45,1.45,0,0,1,36,60.5H34.14v5.85c.66-.25,1.33-.53,2-.81a1.4,1.4,0,0,1,.59-.14,1.08,1.08,0,0,1,1,.84,1.72,1.72,0,0,1,.74-.17h6.72V64.14a1.66,1.66,0,0,1,3.29,0v1.93h7.94a1.42,1.42,0,0,1,1.44,1.54,1.44,1.44,0,0,1-1.44,1.58H49a40.13,40.13,0,0,0,8.64,8.29,1.36,1.36,0,0,1,.63,1.16,2.18,2.18,0,0,1-2,2.06,1.51,1.51,0,0,1-.94-.38A36.39,36.39,0,0,1,48.42,72v9.28a1.66,1.66,0,0,1-3.29,0Zm-7-7.18a.75.75,0,0,1-.28,0A2.08,2.08,0,0,1,36,62.74a1.33,1.33,0,0,1,1.26-1.36c3.64-.49,5-2,5.63-4.66a1.23,1.23,0,0,1,1.26-1A1.81,1.81,0,0,1,46,57.32a1.08,1.08,0,0,1,0,.35C45,61.8,42.57,63.9,38.16,64.77Z"/><path class="cls-4" d="M92.24,58.33c-2.73-.07-5.5-.1-8.3-.14.07,2.56.07,5.11.07,7a9.78,9.78,0,0,1,.63,3.64c0,6.76-2.41,12-11.93,13.51-.11,0-.25,0-.35,0a2,2,0,0,1-2-2,1.57,1.57,0,0,1,1.44-1.57c5.77-1,8.15-3.12,9.13-6a9.33,9.33,0,0,1-5.46,1.61c-5.74,0-8.68-2.84-8.68-7s3.29-7.17,8.86-7.17a9.31,9.31,0,0,1,4.93,1.19c0-1.05-.07-2.24-.1-3.33H78.27c-5.11,0-10.25.11-15.5.28H62.7a1.53,1.53,0,0,1-1.41-1.71c0-.81.42-1.65,1.3-1.65,6-.07,11.94-.1,17.71-.1,0-.7-.07-1.4-.14-2.07V52.8c0-.91.88-1.4,1.82-1.4a1.65,1.65,0,0,1,1.82,1.47c0,.67,0,1.4.07,2.1,2.84,0,5.67,0,8.44,0a1.49,1.49,0,0,1,1.43,1.64,1.52,1.52,0,0,1-1.43,1.68ZM75.68,63.55c-3.43,0-5.39,1.61-5.39,4.06,0,1.89,1.72,3.64,5.15,3.64,3.18,0,5.63-1.22,5.63-4.24C81.07,65.13,79.08,63.55,75.68,63.55Z"/></g></g></svg>