<svg xmlns="http://www.w3.org/2000/svg" viewBox="0 0 558.07 91.34"><defs><style>.cls-1{fill:#ffa73f;}.cls-2{fill:#fff;}.cls-3{fill:#7095ff;}</style></defs><title>アセット 107</title><g id="レイヤー_2" data-name="レイヤー 2"><g id="レイヤー_1-2" data-name="レイヤー 1"><path class="cls-1" d="M139.88,73q-.16,9.5-7.07,9.38a6.83,6.83,0,0,1-4.91-2A6.49,6.49,0,0,1,126,75.49l1.2-69.12a6.07,6.07,0,0,1,2.18-4.71,7.42,7.42,0,0,1,5-1.61,6.79,6.79,0,0,1,4.82,1.86A6.11,6.11,0,0,1,141,6.61Z"/><path class="cls-1" d="M166.75,71.3q-.15,9.27-6.9,9.16a6.71,6.71,0,0,1-4.8-1.94,6.44,6.44,0,0,1-1.82-4.82l1.18-67.52a5.88,5.88,0,0,1,2.13-4.6A7.21,7.21,0,0,1,161.41,0a6.69,6.69,0,0,1,4.7,1.82,5.94,5.94,0,0,1,1.78,4.59Z"/><path class="cls-1" d="M554.67,82.41q-.49,9.27-7.22,8.91a6.63,6.63,0,0,1-4.73-2.1,6.41,6.41,0,0,1-1.65-4.88L544.6,16.9a5.93,5.93,0,0,1,2.29-4.52A7.21,7.21,0,0,1,551.81,11a6.66,6.66,0,0,1,4.64,2,6,6,0,0,1,1.61,4.66Z"/><path class="cls-1" d="M13.79,9.86a11.34,11.34,0,0,0-6.24,4.52C2.75,21.4-.92,33.66.2,49.14c.33,4.49,3,38,22,40,15,1.58,35-9,36-19,.71-7,.13-10.87-4-15-6-6-14.65-2.93-15-5-.31-1.88,7.54-2.56,12-8,5.58-6.8,2.1-20.9-3-26C40.2,8.14,22.94,7.26,13.79,9.86Z"/><path class="cls-2" d="M38,28.93c.67,5.49-3,12.46-8.46,13.13S18.83,36.85,18.16,31.37A10,10,0,0,1,38,28.93Z"/><path class="cls-2" d="M41,64.93c.67,5.49-3,12.46-8.46,13.13S21.83,72.85,21.16,67.37A10,10,0,0,1,41,64.93Z"/><path class="cls-1" d="M106.2,32.14c-12-3-20-3-30,4-1.13.8-10,7-10,23,0,13,7,24,22,23.8a25.52,25.52,0,0,0,13-3.3,2.88,2.88,0,0,1,2-.5c2.41,0,3.72,4,7,4,3,0,6-2,6.5-5,.56-3.3-4.47-9.2-5.5-19-1-9.35,2-15,2-20S110.54,33.23,106.2,32.14Z"/><path class="cls-2" d="M101.12,57.25c-.74,6-6.49,12.5-12.52,11.76s-10-8.41-9.31-14.44a11,11,0,0,1,21.83,2.68Z"/><path class="cls-1" d="M498.32,34.73c-11.69-4-19.66-4.73-30.24,1.37-1.2.7-10.57,6.11-12,22C455,71.1,461,82.66,476,83.77a25.5,25.5,0,0,0,13.24-2.15,2.86,2.86,0,0,1,2-.33c2.4.21,3.35,4.31,6.63,4.6,3,.26,6.15-1.47,6.91-4.42.84-3.24-3.66-9.56-3.82-19.4-.16-9.4,3.3-14.77,3.73-19.75S502.55,36.19,498.32,34.73Z"/><path class="cls-2" d="M491,59.1C489.71,65,483.41,71,477.47,69.72s-9.27-9.25-8-15.19A11,11,0,0,1,491,59.1Z"/><path class="cls-1" d="M297.94,29.65c-1.07,2,1.28-8-6.72-8.24-1.42-.05-7-1.24-7.38,10.75-.24,7-3.58,38.43-1.5,43,.93,2,3.05,3.26,5.89,3.2a8.17,8.17,0,0,0,7.21-5.75c1.24-7,.54-11,1.63-18,1.69-10.9,10.08-20.92,15.65-18.47,4.93,2.18-.14,29.82,4.6,40.19.93,2,4.89,3.17,6.93,2.24,2.69-1.23,4.1-2.86,4.24-6.85a109.08,109.08,0,0,0-.41-17c-.62-7-.51-14-2.23-22.09-.44-2.06-3.47-8-8.68-9.31C309.28,21.35,300.08,25.73,297.94,29.65Z"/><path class="cls-1" d="M392.57,3.53c-4-.14-6.07,1.79-7.13,3.76-5.15,9.46-9.87,24.67-18.19,62.4-.8,3.59-.35,10,5.63,10.7,4,.48,7.23-2.21,8.22-6.21,4.66-18.85,8.22-34.74,9.21-34.7s3.64,19,8.74,36.32a6.5,6.5,0,0,0,6.84,4.75c1.48-.2,5.41-.13,8.22-6.22,8.66-18.71,13.29-36.56,14.25-35.53,1.93,2.07,3.06,27.13,8.56,41.33.56,1.43,3,3.11,5.9,3.21s7.38-1.8,6.7-5.77c-2.9-17.12-7.71-56.68-13.12-68.5-1.86-4.07-4.82-5.18-6.83-4.95-3.06.36-5.05,1.53-6.16,4.49-7.29,19.57-13.56,44.56-15.56,44.49s-4.05-27.16-9-44.34C398.33,6.77,395.78,3.65,392.57,3.53Z"/><path class="cls-1" d="M529,79.28q-.33,9.28-7.06,9a6.63,6.63,0,0,1-4.76-2,6.37,6.37,0,0,1-1.74-4.85l2-45.49a5.92,5.92,0,0,1,2.21-4.57,7.25,7.25,0,0,1,4.89-1.49,6.69,6.69,0,0,1,4.68,1.9,6,6,0,0,1,1.69,4.63Z"/><path class="cls-3" d="M533,15.51c-.46,3.74-4,8.76-7.78,8.3s-6.24-6.23-5.78-10A6.83,6.83,0,0,1,533,15.51Z"/><path class="cls-1" d="M221.7,48.46c-.89,12.67-12.09,28.81-24.76,27.92s-22-18.46-21.11-31.13a23,23,0,0,1,45.87,3.21Z"/><polygon class="cls-1" points="196.29 73.21 191.19 78.67 200.14 79.61 196.29 73.21"/><path class="cls-3" d="M275.7,47.48c-.89,12.66-12.11,28.79-24.77,27.9s-22-18.47-21.1-31.14a23,23,0,1,1,45.87,3.24Z"/><polygon class="cls-3" points="251.55 71.62 246.46 77.08 255.41 78.02 251.55 71.62"/></g></g></svg>